<?xml version="1.0" standalone="no"?>
<!DOCTYPE svg PUBLIC "-//W3C//DTD SVG 20010904//EN"
 "http://www.w3.org/TR/2001/REC-SVG-20010904/DTD/svg10.dtd">
<svg version="1.0" xmlns="http://www.w3.org/2000/svg"
 width="2200.000000pt" height="1238.000000pt" viewBox="0 0 2200.000000 1238.000000"
 preserveAspectRatio="xMidYMid meet">

<g transform="translate(0.000000,1238.000000) scale(0.100000,-0.100000)"
fill="#000000" stroke="none">
<path d="M0 6190 l0 -6190 3504 0 c3091 0 3505 2 3516 15 7 8 17 12 23 8 5 -3
16 2 24 13 12 16 15 17 23 4 8 -13 10 -12 15 1 5 12 16 14 55 9 28 -4 50 -2
50 2 0 5 5 6 12 2 6 -4 34 -9 62 -11 28 -1 62 -6 76 -9 14 -3 45 -8 70 -10 25
-3 46 -9 48 -14 2 -6 2618 -10 7263 -10 l7259 0 0 6190 0 6190 -3640 0 -3640
0 0 -40 c0 -22 4 -40 9 -40 6 0 22 -11 37 -25 14 -13 31 -22 36 -19 4 3 13 -9
20 -26 9 -26 15 -31 34 -27 20 3 24 0 24 -18 0 -18 7 -24 39 -29 21 -3 41 -13
45 -21 6 -17 36 -21 36 -5 0 6 -6 10 -14 10 -15 0 -31 18 -24 26 3 2 16 -2 31
-9 20 -9 27 -19 27 -40 0 -32 37 -71 84 -88 17 -6 39 -22 49 -36 16 -21 17
-28 6 -55 -10 -24 -10 -31 0 -38 10 -6 10 -12 1 -30 -6 -12 -9 -28 -6 -36 3
-8 1 -14 -4 -14 -6 0 -10 -7 -10 -15 0 -8 6 -12 13 -9 8 3 18 -5 25 -18 10
-22 11 -21 13 12 1 19 1 41 0 48 -2 10 3 11 17 3 14 -7 24 -6 38 4 11 8 26 15
35 15 10 0 20 17 29 49 9 35 20 51 34 56 21 6 21 6 1 14 -17 7 -15 10 17 16
26 5 43 3 58 -8 20 -14 20 -14 -11 -21 -31 -6 -31 -7 -15 -25 9 -10 16 -22 15
-27 -4 -17 13 -44 27 -44 14 0 18 -12 15 -37 -3 -20 27 -15 32 5 4 13 5 11 6
-5 1 -13 7 -23 16 -23 8 0 15 -6 15 -14 0 -14 29 -26 63 -26 20 0 24 36 5 43
-8 4 -7 6 3 6 10 1 19 -10 23 -25 5 -20 11 -24 27 -19 15 5 22 0 30 -24 6 -18
16 -28 24 -25 18 7 31 -16 14 -27 -11 -6 -10 -12 5 -27 10 -12 13 -23 8 -26
-6 -3 -13 0 -15 6 -4 10 -8 9 -16 -2 -10 -13 -11 -13 -11 0 -1 8 -6 4 -11 -9
-6 -16 -6 -28 1 -35 7 -7 10 -4 10 10 0 14 2 16 9 5 5 -7 14 -10 20 -6 7 4 18
1 26 -5 12 -10 15 -10 16 1 1 8 5 3 9 -11 7 -23 8 -23 9 -3 2 35 20 37 51 4
16 -18 31 -27 35 -21 10 17 25 11 25 -9 0 -11 -9 -23 -21 -26 -15 -5 -19 -13
-15 -28 4 -19 3 -20 -7 -6 -7 9 -18 14 -24 12 -7 -3 -16 2 -19 11 -4 10 -11
12 -22 6 -10 -5 -25 -11 -34 -14 -14 -4 -17 -15 -16 -50 3 -52 -5 -64 -28 -46
-14 12 -15 10 -12 -21 2 -19 8 -33 14 -32 7 1 14 -7 17 -17 3 -11 2 -20 -2
-20 -3 0 -12 -9 -19 -20 -10 -16 -10 -24 0 -40 10 -16 10 -24 0 -40 -14 -24 2
-60 28 -60 21 0 42 -37 35 -60 -8 -24 -34 -34 -42 -14 -3 8 -12 13 -19 10 -8
-3 -14 0 -14 6 0 7 -7 5 -18 -4 -9 -9 -27 -19 -39 -22 -24 -8 -31 -30 -13 -41
16 -10 12 -25 -9 -33 -11 -4 19 -8 69 -9 75 -2 88 0 83 12 -4 11 -1 13 11 9
10 -4 25 1 35 10 17 16 19 16 25 1 3 -9 4 -21 1 -25 -3 -5 -1 -11 5 -15 5 -3
10 2 10 12 0 16 1 16 16 1 20 -19 11 -53 -11 -44 -20 7 -29 -12 -15 -29 10
-12 10 -18 0 -30 -7 -9 -13 -33 -13 -54 l0 -38 -104 -6 c-57 -3 -106 -7 -109
-10 -3 -2 -7 -17 -10 -33 -3 -22 -2 -25 6 -14 6 9 10 10 10 3 0 -16 -30 -44
-40 -38 -16 10 -33 -35 -19 -51 9 -11 8 -18 -2 -31 -11 -12 -11 -17 -2 -20 8
-3 6 -15 -8 -40 -16 -29 -18 -38 -7 -44 7 -5 9 -9 3 -9 -20 0 -38 17 -26 24
13 8 15 56 2 56 -5 0 -19 -9 -32 -19 -21 -17 -22 -22 -11 -40 16 -28 15 -66
-3 -81 -8 -7 -15 -20 -15 -30 0 -10 -10 -20 -21 -23 -16 -4 -20 -11 -16 -26 3
-14 0 -21 -9 -21 -8 0 -14 -4 -14 -10 0 -5 6 -10 13 -10 8 0 13 -15 14 -40 2
-40 -12 -54 -24 -25 -3 9 -13 15 -22 13 -9 -1 -22 1 -29 6 -10 6 -13 3 -11
-10 4 -27 -10 -74 -21 -74 -6 0 -10 -6 -11 -12 0 -7 -13 -23 -29 -36 -34 -27
-70 -22 -70 9 0 10 -3 19 -7 19 -5 0 -21 11 -36 24 -16 14 -35 22 -43 19 -8
-3 -22 -2 -31 2 -46 20 -102 13 -83 -10 9 -10 6 -14 -11 -17 -31 -4 -35 -25
-7 -33 13 -4 31 -16 41 -26 9 -10 24 -16 32 -12 9 3 15 2 13 -3 -1 -5 3 -19
10 -31 13 -24 3 -37 -22 -27 -9 3 -16 1 -16 -5 0 -12 -31 -3 -42 13 -4 6 -8
21 -8 34 0 25 -10 28 -29 10 -11 -10 -13 -10 -7 0 5 8 -1 12 -21 12 -19 0 -24
-3 -14 -9 9 -6 10 -11 2 -15 -6 -4 -11 -4 -11 0 0 3 -7 1 -15 -6 -8 -7 -15 -9
-15 -5 0 4 -8 -3 -18 -16 -12 -14 -18 -35 -16 -56 1 -19 -2 -34 -9 -34 -7 -1
-34 -3 -62 -4 -27 -1 -57 -5 -66 -9 -9 -4 -22 -6 -30 -4 -7 2 -13 -1 -14 -7 0
-15 -35 -61 -35 -47 0 6 -4 12 -9 12 -4 0 -6 -22 -3 -49 4 -41 1 -51 -15 -60
-30 -16 -35 -76 -17 -198 9 -59 21 -157 28 -218 13 -116 45 -206 89 -253 20
-21 27 -23 97 -17 184 16 401 -80 457 -201 41 -91 39 -105 -66 -404 -46 -131
-51 -153 -51 -232 0 -95 20 -208 49 -272 10 -23 39 -67 65 -98 26 -32 61 -87
78 -123 28 -61 30 -72 26 -153 -4 -87 -27 -159 -59 -192 -32 -32 -97 -127
-117 -170 -59 -131 -72 -163 -72 -184 0 -14 -3 -26 -8 -28 -4 -1 -22 -32 -40
-67 -26 -52 -30 -67 -20 -76 29 -27 109 -47 213 -55 122 -9 245 -30 245 -41 0
-12 -29 -31 -62 -39 -212 -54 -269 -71 -300 -91 -21 -13 -37 -29 -38 -36 0
-16 -105 -36 -153 -29 -21 4 -54 18 -73 32 -22 17 -40 24 -51 19 -17 -6 -113
-16 -158 -16 -10 0 -26 -5 -34 -12 -14 -12 -91 -17 -331 -22 -241 -4 -532 -15
-710 -27 -146 -9 -203 -9 -270 1 -47 7 -204 15 -350 17 -146 2 -299 5 -340 7
-41 1 -107 -3 -145 -10 -144 -24 -635 -37 -1380 -36 -713 1 -740 2 -737 20 2
10 6 30 9 44 4 19 -1 29 -20 42 -13 9 -40 30 -58 46 -43 39 -101 43 -121 9
-12 -22 -14 -28 -17 -47 0 -5 -13 -12 -28 -16 -53 -13 -111 -45 -115 -63 -4
-15 -18 -21 -59 -26 -30 -4 -65 -7 -79 -7 -28 1 -399 3 -560 3 -667 0 -1130 6
-1155 15 -16 6 -46 8 -65 6 -19 -2 -125 -6 -235 -8 -110 -3 -210 -7 -222 -10
-49 -12 -72 5 -103 69 -48 104 -48 111 -1 141 41 25 42 25 101 10 48 -12 76
-14 143 -6 45 5 181 9 302 9 181 -1 227 2 258 15 33 14 42 14 78 2 23 -8 63
-15 90 -15 45 0 49 2 49 24 0 26 -68 119 -100 136 -22 12 -33 -2 -44 -57 -8
-35 -31 -49 -53 -31 -20 16 -40 69 -49 125 -4 26 -13 57 -20 68 -8 11 -14 28
-14 39 0 10 -7 24 -15 30 -14 10 -45 108 -45 142 0 8 8 17 18 20 49 16 61 24
56 39 -3 8 -13 15 -21 15 -30 0 -136 83 -162 127 -10 16 -14 15 -41 -15 -16
-18 -30 -41 -30 -52 0 -11 -5 -20 -10 -20 -6 0 -15 -11 -20 -24 -4 -13 -46
-68 -92 -122 -47 -55 -120 -151 -163 -214 -111 -162 -107 -158 -138 -171 -103
-44 -158 208 -94 429 15 51 45 121 67 157 45 74 111 260 138 390 16 75 18 120
15 265 -3 111 1 253 11 386 20 259 20 422 2 489 -8 28 -39 104 -71 170 -104
220 -119 256 -190 465 -31 91 -75 280 -75 322 0 40 46 252 61 280 20 36 57 22
130 -51 94 -93 128 -108 264 -116 117 -7 234 -32 300 -63 22 -11 57 -27 77
-37 20 -9 49 -28 64 -41 35 -34 79 -42 104 -19 21 19 65 153 75 228 7 56 -4
145 -16 126 -6 -11 -9 -10 -15 4 -3 9 -1 24 6 32 10 12 10 18 -1 32 -11 13
-11 17 -1 20 6 3 12 9 12 15 0 7 -5 6 -14 -2 -26 -20 -70 -8 -83 24 -16 36
-16 43 1 49 11 4 13 1 10 -11 -3 -9 2 -5 11 11 8 15 22 27 30 27 10 0 15 10
14 28 0 15 -3 21 -6 15 -8 -22 -22 -14 -25 14 -4 32 -25 42 -35 16 -4 -10 -15
-27 -25 -38 -10 -11 -21 -30 -25 -43 -4 -18 -8 -21 -15 -10 -7 10 -11 10 -15
1 -8 -20 -40 -15 -46 7 -3 13 -14 20 -30 20 -27 0 -44 15 -29 24 5 3 7 17 4
32 -6 32 -45 49 -87 37 -35 -11 -95 0 -110 19 -14 18 -53 11 -65 -13 -11 -20
-40 -27 -40 -9 0 6 5 10 10 10 6 0 10 4 10 8 0 5 -20 7 -45 6 -28 -2 -43 1
-40 7 4 6 -9 7 -33 3 -31 -5 -40 -3 -39 7 1 28 -16 78 -32 93 -52 48 -61 55
-61 46 0 -5 -6 -10 -13 -10 -6 0 -18 -14 -26 -31 -12 -27 -12 -33 0 -41 11 -7
11 -11 2 -15 -7 -2 -13 -11 -13 -19 0 -8 -8 -14 -17 -14 -18 0 -75 -17 -110
-33 -28 -12 -65 -1 -43 13 13 8 13 10 -1 10 -18 0 -59 41 -59 58 0 20 -28 13
-35 -8 -3 -11 -10 -20 -14 -20 -4 0 -16 9 -26 20 -18 20 -17 20 14 20 19 0 30
4 26 10 -9 14 -72 12 -79 -2 -3 -7 -3 -3 0 10 5 19 1 22 -22 22 -31 0 -24 14
9 17 12 2 39 6 61 9 27 5 37 3 32 -5 -4 -6 -14 -11 -22 -11 -8 0 -14 -4 -14
-9 0 -13 39 -23 79 -21 38 2 72 27 53 39 -14 9 -4 48 14 55 8 3 14 14 14 24 0
16 8 19 58 18 31 -1 60 -5 64 -10 4 -6 17 -5 33 4 24 13 26 19 21 50 -6 35
-31 64 -51 57 -5 -2 -8 -13 -7 -23 3 -15 1 -17 -9 -6 -7 6 -21 12 -31 12 -10
0 -18 5 -18 10 0 6 -9 10 -19 10 -11 0 -34 14 -51 32 -29 28 -37 31 -85 29
-36 -2 -62 3 -78 14 -15 9 -26 12 -29 6 -2 -7 -8 -7 -18 0 -13 8 -13 11 3 20
9 5 17 19 17 29 0 17 7 20 43 20 33 0 39 -3 27 -11 -12 -9 -12 -10 3 -5 10 3
21 6 23 6 3 0 3 4 0 9 -3 5 8 11 25 15 17 3 28 10 24 16 -3 5 -1 10 4 10 6 0
11 5 11 10 0 6 -19 10 -42 10 -31 0 -39 -3 -28 -10 18 -11 8 -23 -14 -14 -19
7 -21 20 -5 30 17 10 -44 33 -73 27 -14 -3 -29 0 -32 6 -4 6 -16 11 -27 11
-10 0 -28 9 -38 19 -14 14 -21 16 -25 8 -3 -9 -5 -9 -5 1 -1 6 -8 12 -16 12
-8 0 -15 9 -15 20 0 13 -7 20 -19 20 -11 0 -23 5 -26 10 -3 6 -17 10 -31 10
-14 0 -22 4 -19 10 3 6 1 10 -4 10 -6 0 -11 -4 -11 -10 0 -15 -50 -12 -50 3 0
6 -5 4 -11 -6 -13 -23 -4 -36 21 -30 11 3 20 0 20 -6 0 -6 -21 -10 -55 -9 -43
1 -52 4 -44 14 7 9 7 18 0 31 -6 10 -11 13 -11 7 0 -12 -43 -34 -65 -34 -8 0
-15 6 -15 13 0 16 -42 57 -58 57 -7 0 -12 10 -12 23 0 12 -7 35 -15 51 -8 15
-15 35 -15 43 0 10 -7 14 -20 10 -11 -3 -18 -1 -15 3 3 5 1 11 -5 15 -6 4 -5
13 3 27 10 16 9 22 -1 25 -10 4 -8 9 5 19 25 19 57 18 49 -1 -3 -8 -3 -22 0
-30 6 -14 8 -13 19 2 8 11 9 20 4 24 -14 9 1 39 20 39 18 0 72 39 54 40 -6 0
-9 8 -6 19 4 16 0 19 -21 17 -20 -3 -30 3 -41 23 -14 25 -14 25 -15 4 0 -23
-35 -50 -44 -35 -3 4 -4 22 -4 40 1 24 6 32 20 32 22 0 24 23 3 40 -12 10 -19
7 -39 -17 -22 -25 -25 -26 -26 -8 0 18 -1 18 -15 -3 -15 -20 -14 -24 5 -44 21
-23 27 -44 10 -33 -6 4 -18 1 -26 -6 -8 -6 -17 -9 -21 -5 -3 3 -1 6 5 6 20 0
14 50 -5 50 -16 1 -16 2 -2 13 9 7 14 18 11 25 -2 7 0 20 4 30 4 9 8 28 8 42
1 36 83 69 101 40 3 -5 12 -7 20 -4 8 4 18 -1 21 -10 9 -22 31 -20 39 4 3 11
11 20 16 20 5 0 9 7 9 15 0 7 8 18 17 24 17 9 17 10 0 28 -9 11 -17 24 -17 30
0 6 -6 13 -14 16 -11 4 -13 19 -9 65 7 72 -11 107 -57 110 -34 3 -130 -35
-130 -51 0 -20 -67 -59 -122 -71 -15 -3 -30 -15 -33 -26 -3 -11 -15 -20 -25
-20 -10 0 -25 -3 -33 -6 -9 -3 -16 3 -20 16 -4 17 -10 20 -33 14 -19 -5 -25
-4 -20 5 4 6 1 11 -6 11 -20 0 -22 56 -3 64 8 3 15 0 15 -7 1 -7 6 -4 14 6 9
11 20 15 31 10 13 -4 16 -3 11 5 -4 7 -1 12 8 12 25 0 19 20 -10 30 -21 8 -25
15 -22 42 2 27 7 33 26 31 14 -2 22 3 22 12 0 19 16 19 24 0 11 -31 27 -15 20
20 -5 30 -4 34 10 29 9 -3 14 -9 12 -13 -3 -4 5 -13 16 -20 19 -12 20 -11 15
11 -4 12 -7 29 -7 36 0 9 -14 11 -49 8 -45 -4 -50 -3 -55 20 l-6 24 -3195 0
-3195 0 0 -6190z m6410 6106 c0 -3 -4 -8 -10 -11 -5 -3 -10 -1 -10 4 0 6 5 11
10 11 6 0 10 -2 10 -4z m8533 -73 c-13 -2 -33 -2 -45 0 -13 2 -3 4 22 4 25 0
35 -2 23 -4z m235 0 c-10 -2 -26 -2 -35 0 -10 3 -2 5 17 5 19 0 27 -2 18 -5z
m55 -186 c24 -9 21 -33 -5 -42 -14 -4 -18 -8 -10 -12 6 -2 10 -9 6 -14 -8 -14
-24 -1 -24 20 0 11 -10 21 -22 25 l-23 6 25 19 c13 11 27 16 30 12 3 -4 13
-10 23 -14z m47 -23 c0 -8 -5 -12 -10 -9 -6 4 -8 11 -5 16 9 14 15 11 15 -7z
m-8876 -39 c-4 -8 -8 -15 -10 -15 -2 0 -4 7 -4 15 0 8 4 15 10 15 5 0 7 -7 4
-15z m8886 1 c0 -9 -30 -14 -35 -6 -4 6 3 10 14 10 12 0 21 -2 21 -4z m-3 -68
c-3 -7 -5 -2 -5 12 0 14 2 19 5 13 2 -7 2 -19 0 -25z m-8564 -533 c6 -40 6
-40 -8 -13 -8 15 -12 34 -9 43 8 21 10 18 17 -30z m163 -139 c2 -20 -1 -22
-11 -13 -9 8 -10 16 -3 25 13 16 13 16 14 -12z m8840 -182 c-3 -9 -6 -20 -6
-25 0 -5 -4 -9 -9 -9 -4 0 -6 11 -3 25 2 14 9 25 14 25 6 0 7 -7 4 -16z
m-8552 -85 c12 11 21 10 47 -3 18 -9 39 -16 47 -16 11 0 9 -5 -6 -19 -12 -10
-22 -30 -22 -45 0 -16 -5 -26 -15 -26 -8 0 -15 5 -15 11 0 6 -7 3 -16 -5 -17
-17 -39 -22 -29 -7 8 14 -15 25 -27 13 -13 -13 -43 13 -33 29 4 5 -1 19 -11
30 -16 18 -16 19 8 19 15 0 29 7 32 17 6 14 9 15 16 3 7 -11 11 -11 24 -1z
m106 -101 c0 -5 -4 -8 -10 -8 -5 0 -10 10 -10 23 0 18 2 19 10 7 5 -8 10 -18
10 -22z m295 2 c3 -5 -1 -10 -10 -10 -9 0 -13 5 -10 10 3 6 8 10 10 10 2 0 7
-4 10 -10z m8058 -87 c-7 -2 -19 -2 -25 0 -7 3 -2 5 12 5 14 0 19 -2 13 -5z
m-7838 -223 c-8 -24 5 -26 46 -4 32 16 59 13 59 -7 0 -6 -9 -9 -20 -6 -10 3
-19 2 -18 -2 4 -13 -26 -81 -35 -81 -6 0 -15 -7 -22 -17 -11 -15 -14 -15 -38
3 -29 21 -34 40 -14 47 8 3 6 9 -7 20 -18 13 -19 16 -4 31 9 9 24 16 32 16 9
0 16 5 16 10 0 6 3 10 6 10 3 0 2 -9 -1 -20z m223 -13 c2 -11 -3 -17 -16 -17
-15 0 -19 5 -15 20 6 24 26 21 31 -3z m-441 -74 c-3 -10 -5 -2 -5 17 0 19 2
27 5 18 2 -10 2 -26 0 -35z m7990 11 c-9 -9 -28 6 -21 18 4 6 10 6 17 -1 6 -6
8 -13 4 -17z m-7399 -108 c-7 -8 -17 -12 -22 -9 -4 3 -2 9 5 14 22 13 31 11
17 -5z m-368 -6 c0 -13 -11 -13 -30 0 -12 8 -11 10 8 10 12 0 22 -4 22 -10z
m320 -20 c0 -5 -2 -10 -4 -10 -3 0 -8 5 -11 10 -3 6 -1 10 4 10 6 0 11 -4 11
-10z m40 -16 c0 -8 -5 -12 -10 -9 -6 4 -8 11 -5 16 9 14 15 11 15 -7z m45 6
c3 -5 1 -10 -4 -10 -6 0 -11 5 -11 10 0 6 2 10 4 10 3 0 8 -4 11 -10z m6786
-310 c15 0 10 -26 -7 -40 -12 -11 -18 -10 -31 3 -19 19 -10 52 13 43 9 -3 20
-6 25 -6z m-2888 -3557 c19 -11 -16 -41 -55 -47 -74 -10 -121 -6 -106 9 5 5
32 8 116 14 29 2 9 21 -23 21 -19 0 -35 5 -35 11 0 9 83 3 103 -8z m157 7 c13
-8 13 -10 -2 -10 -9 0 -20 5 -23 10 -8 13 5 13 25 0z m107 -16 c-3 -3 -12 -4
-19 -1 -8 3 -5 6 6 6 11 1 17 -2 13 -5z m1633 -3 c0 -16 -18 -22 -45 -15 -20
5 -23 9 -13 15 18 12 58 11 58 0z m-2210 -5 c0 -2 -7 -6 -15 -10 -8 -3 -15 -1
-15 4 0 6 7 10 15 10 8 0 15 -2 15 -4z m2105 -9 c-23 -16 -55 -28 -55 -22 0 6
53 34 65 35 5 0 1 -6 -10 -13z m-1982 -11 c18 -14 18 -14 0 -19 -10 -2 -40 -5
-67 -6 -42 -1 -47 1 -35 15 8 9 21 13 35 10 13 -4 26 -2 29 4 8 13 16 12 38
-4z m571 -19 c-3 -9 -12 -17 -19 -17 -10 0 -11 5 -2 24 13 27 32 20 21 -7z
m-701 -20 c-9 -14 -56 -28 -113 -33 -46 -4 -52 -2 -35 8 48 29 163 49 148 25z
m567 -7 c0 -5 -4 -10 -9 -10 -6 0 -13 5 -16 10 -3 6 1 10 9 10 9 0 16 -4 16
-10z m1416 -17 c-5 -15 -13 -18 -42 -15 -39 5 -37 12 9 28 37 13 41 12 33 -13z
m-1176 -3 c0 -12 -8 -12 -35 0 -18 8 -17 9 8 9 15 1 27 -3 27 -9z m105 -20 c3
-6 -1 -7 -9 -4 -18 7 -21 14 -7 14 6 0 13 -4 16 -10z m939 -15 c-10 -8 -23
-14 -29 -14 -5 0 -1 6 9 14 11 8 24 15 30 15 5 0 1 -7 -10 -15z m-74 -45 c-19
-16 -41 -29 -48 -30 -7 0 -17 -11 -22 -25 -5 -14 -16 -25 -23 -25 -7 0 -32
-16 -55 -36 l-41 -35 -98 2 c-54 1 -123 -1 -153 -5 -126 -14 -150 -15 -150 -6
0 6 10 11 23 12 41 3 52 4 87 13 55 13 70 13 157 3 98 -12 118 -6 183 55 55
51 138 107 159 107 9 0 2 -11 -19 -30z m-1975 10 c-3 -5 -10 -10 -16 -10 -5 0
-9 5 -9 10 0 6 7 10 16 10 8 0 12 -4 9 -10z m-1272 -17 c-7 -2 -19 -2 -25 0
-7 3 -2 5 12 5 14 0 19 -2 13 -5z m-2673 -23 c0 -20 -1 -20 -30 -5 -16 9 -30
18 -30 20 0 3 14 5 30 5 23 0 30 -4 30 -20z m135 0 l30 -8 -35 -1 c-19 0 -42
4 -50 9 -12 8 -11 10 5 9 11 -1 34 -5 50 -9z m5090 0 c3 -5 2 -10 -4 -10 -5 0
-13 5 -16 10 -3 6 -2 10 4 10 5 0 13 -4 16 -10z m-4953 -38 c33 -13 50 -37 19
-27 -16 5 -20 3 -15 -9 6 -17 44 -23 44 -7 0 5 17 0 37 -10 21 -10 44 -19 51
-19 12 0 12 -3 2 -15 -16 -20 -30 -19 -30 2 0 14 -2 14 -20 -2 -16 -14 -23
-16 -32 -7 -9 9 -8 12 6 12 9 0 14 5 11 10 -3 6 -18 10 -32 10 -14 0 -36 12
-51 28 -15 15 -38 35 -52 44 l-25 17 30 -8 c17 -5 42 -14 57 -19z m2408 14
c14 -3 37 -8 53 -12 15 -3 25 -10 22 -14 -3 -5 -16 -6 -28 -1 -12 4 -61 8
-109 7 -47 -1 -84 3 -81 7 2 4 -16 5 -41 2 -53 -8 -61 0 -13 14 33 10 152 8
197 -3z m680 -6 c0 -6 -10 -10 -22 -9 -13 0 -36 -3 -53 -6 -16 -3 -40 -8 -53
-11 -18 -4 -22 -9 -17 -26 7 -20 5 -20 -89 -16 -52 2 -99 7 -103 11 -12 13 20
27 47 22 14 -3 41 0 60 6 65 21 210 48 223 41 4 -2 7 -7 7 -12z m483 -29 c-20
-19 -37 -28 -49 -25 -11 3 -40 -6 -66 -20 -26 -14 -50 -21 -53 -17 -7 13 -86
19 -82 6 4 -11 94 -32 147 -34 27 -1 31 -4 19 -11 -10 -6 -40 -6 -80 1 -89 13
-142 39 -133 64 9 21 60 28 114 15 43 -10 56 -9 106 9 31 12 66 28 77 36 33
23 32 9 0 -24z m172 3 c19 -16 23 -23 12 -20 -10 3 -22 6 -25 6 -4 0 -13 9
-20 20 -17 27 -3 25 33 -6z m-9737 -9 c-3 -3 -9 2 -12 12 -6 14 -5 15 5 6 7
-7 10 -15 7 -18z m8584 -15 c7 0 22 -7 32 -15 18 -14 16 -15 -30 -15 -35 0
-45 3 -34 10 13 9 13 10 0 10 -15 1 -60 33 -60 44 0 4 18 -3 40 -14 21 -11 45
-20 52 -20z m-8432 20 c0 -5 -5 -10 -11 -10 -5 0 -7 5 -4 10 3 6 8 10 11 10 2
0 4 -4 4 -10z m8535 0 c3 -6 -5 -10 -19 -10 -14 0 -28 5 -31 10 -3 6 5 10 19
10 14 0 28 -4 31 -10z m1990 3 c-10 -3 -29 -12 -41 -19 -12 -8 -28 -12 -37 -9
-8 4 -32 2 -53 -4 -21 -6 -41 -7 -44 -2 -3 5 -16 11 -30 13 -32 5 107 25 175
25 28 1 41 -2 30 -4z m215 -3 c8 -5 12 -12 9 -15 -8 -8 -39 5 -39 16 0 11 11
11 30 -1z m-1653 -21 c-17 -10 -17 -12 -1 -23 12 -9 13 -15 6 -20 -15 -9 -49
9 -62 34 -10 19 -7 20 32 20 35 -1 40 -3 25 -11z m1148 -9 c-16 -11 -38 -20
-47 -20 -9 0 -20 -5 -23 -10 -4 -6 -16 -8 -27 -4 -14 4 -18 2 -14 -5 4 -7 -1
-11 -13 -11 -11 0 -23 -4 -26 -10 -12 -20 -27 -10 -23 15 4 19 1 25 -13 25
-10 0 -20 3 -22 8 -3 4 36 7 86 6 64 0 96 4 105 13 7 7 21 13 30 13 12 0 7 -7
-13 -20z m685 15 c0 -3 -15 -11 -32 -19 -18 -8 -26 -15 -18 -16 8 -1 -11 -7
-44 -14 -56 -12 -106 -11 -106 3 0 10 132 50 168 50 17 1 32 -1 32 -4z m-311
-21 c2 -2 -14 -4 -37 -4 -22 0 -43 4 -46 9 -6 8 73 3 83 -5z m-10629 -16 c0
-13 -23 -5 -28 10 -2 7 2 10 12 6 9 -3 16 -11 16 -16z m8640 2 c0 -5 -7 -7
-15 -4 -8 4 -15 8 -15 10 0 2 7 4 15 4 8 0 15 -4 15 -10z m1370 0 c-19 -13
-30 -13 -30 0 0 6 10 10 23 10 18 0 19 -2 7 -10z m420 6 c0 -3 -4 -8 -10 -11
-5 -3 -10 -1 -10 4 0 6 5 11 10 11 6 0 10 -2 10 -4z m-3100 -26 c0 -5 -9 -6
-20 -3 -11 3 -17 9 -15 14 7 10 35 1 35 -11z m394 12 c4 -2 2 -8 -5 -13 -22
-14 -84 -10 -115 6 -28 15 -27 16 41 14 39 -2 74 -5 79 -7z m591 -1 c3 -5 0
-13 -6 -16 -16 -10 -89 -13 -89 -3 0 4 -11 8 -25 8 -14 0 -25 5 -25 10 0 13
137 13 145 1z m275 -12 c0 -14 -16 -11 -29 5 -10 12 -8 13 8 9 12 -3 21 -9 21
-14z m1960 11 c0 -5 -5 -10 -11 -10 -5 0 -7 5 -4 10 3 6 8 10 11 10 2 0 4 -4
4 -10z m-4438 -44 c13 -18 9 -26 -12 -26 -11 0 -19 3 -19 8 3 19 -2 33 -11 27
-12 -7 -50 12 -50 25 0 12 82 -19 92 -34z m822 35 c9 -14 -22 -18 -108 -13
-50 3 -73 7 -65 13 18 11 166 12 173 0z m291 -1 c-28 -12 -63 -12 -70 0 -4 6
12 10 42 9 36 0 43 -3 28 -9z m200 -2 c-9 -27 19 -43 75 -44 30 0 66 -7 80
-14 32 -17 10 -25 -31 -11 -21 7 -38 7 -57 -1 -33 -14 -132 -19 -151 -8 -10 5
4 11 40 18 30 5 43 10 29 11 -31 2 -45 11 -45 31 0 19 14 30 42 30 14 0 21 -5
18 -12z m98 1 c-8 -8 -16 -8 -30 0 -16 9 -14 10 12 11 21 0 26 -3 18 -11z
m3900 4 c-7 -2 -21 -2 -30 0 -10 3 -4 5 12 5 17 0 24 -2 18 -5z m-4868 -13 c7
-11 -16 -11 -60 0 -28 7 -28 8 12 9 23 0 45 -3 48 -9z m161 -15 c7 -9 16 -15
20 -14 5 1 27 -2 49 -6 22 -5 46 -8 54 -6 7 1 11 -4 9 -11 -5 -12 -24 -13 -83
-7 -11 1 -34 12 -51 25 -16 12 -50 27 -75 33 l-44 11 55 -5 c34 -3 59 -11 66
-20z m4951 11 c-15 -7 -24 -15 -21 -19 4 -4 14 -2 21 5 11 9 16 9 23 -1 4 -8
14 -10 21 -7 8 4 3 -2 -10 -13 -25 -22 -22 -24 22 -21 29 2 35 -11 13 -29 -10
-9 -16 -9 -21 -1 -4 6 -14 9 -23 5 -9 -3 -31 7 -54 25 -21 17 -57 35 -81 39
-42 9 -24 15 33 12 14 -1 37 2 50 8 36 14 60 12 27 -3z m-160 -2 c-3 -3 -12
-4 -19 -1 -8 3 -5 6 6 6 11 1 17 -2 13 -5z m253 -4 c11 -8 5 -9 -20 -5 -19 3
-36 8 -39 11 -9 9 45 3 59 -6z m-5523 -6 c-3 -3 -12 -4 -19 -1 -8 3 -5 6 6 6
11 1 17 -2 13 -5z m5570 0 c-3 -3 -12 -4 -19 -1 -8 3 -5 6 6 6 11 1 17 -2 13
-5z m-5487 -14 c27 -9 24 -10 -27 -16 -24 -3 -33 0 -33 11 0 16 20 18 60 5z
m177 4 c-3 -3 -12 -4 -19 -1 -8 3 -5 6 6 6 11 1 17 -2 13 -5z m2718 -4 c-3 -5
-30 -9 -58 -9 l-52 2 40 7 c61 11 77 11 70 0z m715 -15 c28 -15 41 -35 22 -35
-14 0 -71 30 -77 41 -9 14 23 11 55 -6z m-7790 -5 c0 -5 -2 -10 -4 -10 -3 0
-8 5 -11 10 -3 6 -1 10 4 10 6 0 11 -4 11 -10z m4276 -5 c-11 -8 -25 -15 -32
-15 -7 0 -19 -3 -28 -6 -10 -4 -16 -1 -16 9 0 15 22 22 75 25 20 1 20 1 1 -13z
m1711 -16 c-30 -8 -36 0 -13 17 16 11 21 11 28 1 5 -8 0 -14 -15 -18z m763 14
c41 -4 108 -8 148 -7 39 0 66 -3 60 -8 -8 -5 -1 -8 19 -8 17 0 34 -3 36 -7 3
-5 -15 -8 -39 -8 -25 0 -48 -5 -52 -11 -5 -9 -23 -9 -65 -2 -31 6 -65 7 -75 3
-24 -9 -194 -12 -179 -3 7 4 46 8 87 9 41 1 89 5 105 9 27 7 24 8 -20 10 -27
1 -67 1 -87 0 -38 -2 -108 18 -108 31 0 7 53 5 170 -8z m3650 7 c12 -8 9 -10
-13 -10 -16 0 -26 4 -22 10 8 12 16 12 35 0z m-5852 -13 c48 1 53 -3 16 -17
-14 -6 -22 -14 -19 -20 8 -13 -22 -13 -87 3 l-53 12 40 5 40 6 -55 12 -55 11
65 -7 c36 -3 84 -6 108 -5z m3177 3 c-3 -5 -18 -10 -33 -9 -24 0 -25 1 -7 9
28 12 47 12 40 0z m2530 0 c-28 -12 -55 -12 -55 0 0 6 17 10 38 9 30 0 33 -2
17 -9z m-5945 -14 c-19 -6 -41 -15 -49 -20 -9 -6 -12 -5 -9 5 5 14 39 27 73
27 11 0 5 -5 -15 -12z m5413 -6 c20 -1 20 -2 5 -11 -10 -5 -30 -6 -45 -2 -15
4 -37 6 -48 4 -32 -5 -9 11 27 18 18 4 35 4 36 -1 2 -4 13 -8 25 -8z m14 14
c-3 -3 -12 -4 -19 -1 -8 3 -5 6 6 6 11 1 17 -2 13 -5z m-1100 -10 c-3 -3 -12
-4 -19 -1 -8 3 -5 6 6 6 11 1 17 -2 13 -5z m1633 -4 c0 -5 -15 -10 -32 -9 -31
1 -32 1 -8 9 35 11 40 11 40 0z m271 -5 c-18 -8 -42 -15 -53 -15 -10 0 -17 -4
-13 -9 3 -6 -3 -15 -14 -21 -14 -7 -22 -7 -26 1 -10 15 -3 19 57 40 64 21 96
24 49 4z m-10190 -12 c13 -16 12 -17 -3 -4 -10 7 -18 15 -18 17 0 8 8 3 21
-13z m9534 2 c45 -5 44 -7 -5 -16 -61 -10 -150 -11 -150 0 0 12 81 30 105 24
11 -3 34 -7 50 -8z m275 1 c-1 -5 4 -12 11 -17 20 -12 3 -22 -25 -15 -22 5
-24 12 -17 44 2 8 32 -4 31 -12z m660 4 c-8 -5 -22 -10 -30 -10 -13 0 -13 1 0
10 8 5 22 10 30 10 13 0 13 -1 0 -10z m-7196 -15 c68 -18 78 -23 71 -36 -4 -5
-19 -2 -37 7 -21 11 -43 14 -70 10 -26 -4 -37 -3 -33 4 6 9 -30 15 -64 11 -7
-2 -10 2 -6 8 9 16 71 14 139 -4z m3538 9 c-6 -3 -10 -10 -6 -15 3 -5 -9 -9
-26 -9 -17 0 -43 -6 -58 -14 -24 -12 -34 -12 -77 0 -40 11 -43 13 -14 10 31
-4 82 11 54 15 -12 2 65 13 110 16 17 1 24 -1 17 -3z m-3375 -10 c-3 -3 -12
-4 -19 -1 -8 3 -5 6 6 6 11 1 17 -2 13 -5z m1493 -4 c12 -8 11 -10 -7 -10 -13
0 -23 5 -23 10 0 13 11 13 30 0z m59 -11 c-18 -11 -39 -11 -39 0 0 11 31 20
44 13 4 -2 2 -8 -5 -13z m4701 11 c0 -5 -15 -10 -32 -10 -25 0 -29 3 -18 10
20 13 50 13 50 0z m67 -5 c0 -8 -4 -15 -7 -15 -4 0 -13 7 -20 15 -10 12 -9 15
7 15 11 0 20 -7 20 -15z m303 5 c0 -5 -2 -10 -4 -10 -3 0 -8 5 -11 10 -3 6 -1
10 4 10 6 0 11 -4 11 -10z m340 6 c0 -3 -4 -8 -10 -11 -5 -3 -10 -1 -10 4 0 6
5 11 10 11 6 0 10 -2 10 -4z m-1210 -26 c0 -5 -5 -10 -11 -10 -5 0 -7 5 -4 10
3 6 8 10 11 10 2 0 4 -4 4 -10z m1140 0 c0 -5 -7 -10 -15 -10 -8 0 -15 5 -15
10 0 6 7 10 15 10 8 0 15 -4 15 -10z m130 0 c17 -11 8 -15 -50 -24 -86 -14
-111 -15 -105 -6 3 6 15 10 25 10 10 0 21 4 25 10 3 5 11 7 18 4 8 -3 24 0 38
5 31 12 31 12 49 1z m2720 -14 c-12 -33 -42 -66 -52 -60 -5 3 -7 0 -6 -7 2 -8
-10 -14 -29 -16 -33 -3 -32 -2 30 51 34 30 63 55 64 55 1 1 -2 -10 -7 -23z
m-8858 8 c3 -3 -1 -19 -9 -35 -12 -24 -18 -28 -29 -18 -19 15 -18 29 2 29 14
0 14 3 4 15 -10 12 -9 15 7 15 11 0 22 -3 25 -6z m578 -4 c0 -5 -4 -10 -10
-10 -5 0 -10 5 -10 10 0 6 5 10 10 10 6 0 10 -4 10 -10z m4840 -1 c13 -9 13
-10 -2 -6 -9 3 -18 1 -21 -6 -2 -8 -9 -6 -21 6 -17 16 -16 17 6 17 13 0 30 -5
38 -11z m440 -10 c0 -5 -9 -9 -20 -9 -19 0 -26 11 -14 23 8 8 34 -3 34 -14z
m-395 1 c3 -5 1 -10 -4 -10 -6 0 -11 5 -11 10 0 6 2 10 4 10 3 0 8 -4 11 -10z
m80 0 c-8 -12 34 -22 68 -16 16 3 25 1 22 -5 -4 -5 -10 -7 -15 -4 -5 3 -11 1
-15 -5 -3 -5 -20 -10 -36 -10 -17 0 -39 -4 -49 -10 -10 -5 -35 -12 -56 -15
-48 -7 -244 -12 -250 -6 -2 2 1 10 6 16 8 9 4 11 -14 8 -13 -3 -27 0 -30 6 -5
8 13 11 56 11 60 -1 62 -1 38 -15 -25 -14 -25 -14 16 -15 29 0 46 6 59 20 14
16 31 20 77 20 43 0 60 4 64 15 4 9 19 15 36 15 16 0 27 -4 23 -10z m802 -5
c0 -16 -31 -30 -47 -20 -17 10 -11 23 13 28 12 2 25 5 28 6 3 0 6 -6 6 -14z
m-8250 -21 c24 -14 41 -30 37 -35 -9 -16 -65 1 -86 25 -36 43 -15 48 49 10z
m3738 10 c82 -19 108 -19 178 -6 26 5 47 5 47 0 0 -4 -7 -8 -16 -8 -8 0 -35
-9 -59 -20 -28 -13 -73 -22 -120 -24 -42 -2 -81 -8 -88 -13 -7 -5 -23 -10 -36
-11 -23 -1 -23 0 -7 16 9 9 29 17 44 18 90 2 116 5 102 13 -26 15 -82 22 -74
10 4 -8 -4 -9 -27 -4 -19 4 -35 11 -37 16 -2 5 -31 9 -65 9 -34 0 -69 5 -77
11 -11 7 18 8 100 4 63 -4 123 -9 135 -11z m603 4 c-7 -20 -58 -23 -58 -4 0
11 10 16 31 16 20 0 29 -4 27 -12z m3352 2 c-34 -11 -60 -11 -35 0 11 5 29 8
40 8 16 0 15 -2 -5 -8z m600 0 c0 -5 -4 -10 -10 -10 -5 0 -10 5 -10 10 0 6 5
10 10 10 6 0 10 -4 10 -10z m-4280 -10 c12 -8 9 -10 -13 -10 -16 0 -26 4 -22
10 8 12 16 12 35 0z m1774 -18 c-22 -5 -31 7 -14 18 9 6 17 5 22 -3 4 -7 1
-13 -8 -15z m2726 8 c-9 -6 -9 -9 1 -13 8 -3 -2 -4 -22 -3 -21 0 -35 4 -32 9
2 4 -1 7 -6 7 -6 0 -11 3 -11 8 0 4 19 6 41 4 25 -3 36 -7 29 -12z m-3240 0
c-20 -13 -33 -13 -25 0 3 6 14 10 23 10 15 0 15 -2 2 -10z m2497 4 c-3 -3 -12
-4 -19 -1 -8 3 -5 6 6 6 11 1 17 -2 13 -5z m66 -4 c-13 -5 -23 -17 -23 -26 0
-10 -5 -14 -15 -11 -8 4 -17 2 -20 -2 -3 -5 -14 -7 -26 -4 -14 4 -20 1 -17 -8
3 -15 -3 -19 -27 -19 -8 0 -15 5 -15 10 0 6 6 10 14 10 7 0 19 7 26 15 15 18
-1 21 -32 4 -16 -9 -24 -7 -36 5 -15 15 -11 16 48 16 36 0 72 5 80 10 8 5 26
9 40 9 25 0 25 0 3 -9z m-3723 -9 c0 -5 -9 -11 -20 -14 -22 -6 -28 8 -7 16 19
8 27 8 27 -2z m270 4 c0 -3 -10 -10 -22 -15 -23 -9 -23 -9 2 -10 19 0 22 -2
11 -9 -12 -8 -8 -11 15 -16 16 -3 43 -9 60 -14 17 -4 56 -5 86 -1 31 5 100 11
153 15 l98 8 -22 -22 c-11 -11 -27 -21 -33 -21 -10 0 -10 2 -1 8 7 4 -19 8
-58 8 -42 -1 -73 -6 -77 -13 -13 -20 -212 -14 -253 8 -19 10 -20 9 -23 -13 0
-7 -10 -17 -21 -23 -11 -6 -32 -18 -47 -28 -16 -12 -39 -17 -60 -15 l-33 4 27
11 c14 7 29 17 33 23 6 9 2 9 -13 1 -11 -6 -32 -11 -47 -11 -14 0 -28 -6 -31
-14 -3 -8 -18 -16 -34 -20 -21 -4 -28 -10 -24 -21 7 -17 -10 -18 -61 -5 -21 5
-24 8 -10 9 13 1 21 8 21 20 0 16 -13 23 -61 36 -67 19 -131 17 -127 -2 1 -7
-6 -13 -16 -13 -25 0 -34 -11 -22 -25 8 -9 6 -14 -5 -19 -18 -6 -45 2 -45 15
0 5 -7 9 -16 9 -8 0 -12 5 -9 10 3 6 2 10 -4 10 -19 0 -21 -19 -4 -29 17 -10
17 -10 0 -11 -17 0 -17 -1 -2 -16 12 -12 13 -19 5 -24 -6 -4 -12 -11 -13 -16
-2 -10 -136 -15 -151 -6 -5 3 -1 9 10 13 17 7 17 8 1 8 -10 1 -16 5 -13 10 3
5 14 8 24 6 67 -13 79 -13 79 1 0 8 -7 14 -14 14 -8 0 -21 7 -29 15 -9 8 -31
15 -51 15 -26 0 -36 5 -40 20 -4 15 -11 18 -29 14 -14 -4 -24 -2 -24 4 0 6 26
13 58 17 31 3 67 11 79 17 17 8 37 8 78 -2 42 -10 61 -10 80 -2 15 7 27 8 30
2 10 -15 32 -12 32 5 0 18 -13 20 -20 3 -4 -8 -6 -7 -6 3 -1 10 10 19 24 23
28 7 49 0 40 -14 -9 -15 14 -21 36 -9 12 6 19 7 15 1 -3 -6 11 -6 41 -1 60 12
70 22 16 17 -48 -4 -53 -1 -20 12 17 7 18 9 5 9 -31 1 -20 21 12 23 17 1 37 2
45 2 16 1 21 -18 5 -20 -5 -1 -15 -2 -22 -3 -6 0 -9 -4 -5 -7 11 -12 217 -14
217 -3 0 7 11 9 25 7 13 -3 22 -1 19 3 -3 5 -15 10 -27 10 -16 1 -17 3 -5 6 9
2 34 -1 55 -6 30 -9 40 -8 48 2 15 20 65 36 65 22z m4195 -5 c-3 -5 -15 -10
-26 -10 -11 0 -17 5 -14 10 3 6 15 10 26 10 11 0 17 -4 14 -10z m-13395 -10
c0 -5 -5 -10 -11 -10 -5 0 -7 5 -4 10 3 6 8 10 11 10 2 0 4 -4 4 -10z m5618
-2 c-3 -7 -15 -14 -29 -15 -15 -1 -17 0 -6 3 9 3 15 10 12 15 -4 5 1 9 10 9 9
0 15 -6 13 -12z m2827 1 c10 -16 3 -16 -35 -3 l-35 13 32 0 c17 1 35 -4 38
-10z m-5537 -25 c12 -8 22 -19 22 -24 0 -11 -30 -1 -48 17 -7 7 -22 13 -32 13
-10 0 -22 5 -26 11 -9 15 53 2 84 -17z m7712 22 c0 -16 -15 -36 -27 -36 -8 0
-11 5 -8 10 3 6 1 10 -4 10 -6 0 -11 5 -11 10 0 6 11 10 25 10 14 0 25 -2 25
-4z m-3973 -17 c15 -6 68 -11 118 -10 49 0 92 -4 96 -10 4 -6 15 -6 33 1 37
14 92 12 141 -6 l40 -13 -40 4 -40 5 34 -15 c18 -8 37 -12 42 -9 5 3 9 -2 9
-10 0 -18 25 -22 35 -5 4 6 13 8 21 5 7 -3 16 -2 18 3 6 9 73 6 98 -4 33 -13
7 -25 -50 -24 -31 2 -72 -1 -90 -5 -26 -6 -38 -4 -55 11 -38 34 -79 44 -155
39 -42 -2 -70 0 -66 5 3 5 -6 9 -20 9 -14 0 -26 -4 -26 -10 0 -5 -10 -10 -22
-10 l-23 0 25 -20 c14 -11 20 -20 13 -20 -6 0 -15 5 -18 10 -9 14 -24 3 -35
-26 -11 -28 -32 -31 -51 -8 -28 34 -86 54 -161 55 -40 0 -84 3 -98 7 -23 5
-22 6 13 18 24 8 47 10 66 4 23 -6 33 -4 45 9 9 10 13 21 9 24 -11 11 63 8 94
-4z m-3427 -43 c8 -3 3 -4 -12 -1 -16 3 -28 1 -28 -4 0 -12 -68 -7 -81 6 -5 5
-7 17 -4 25 6 14 12 14 58 -2 29 -10 59 -20 67 -24z m2044 32 c22 -6 46 -16
51 -21 7 -7 4 -8 -7 -4 -10 4 -18 2 -18 -2 0 -11 25 -21 50 -21 36 0 30 -19
-11 -41 -33 -17 -47 -19 -65 -10 -17 7 -22 16 -17 27 5 13 2 16 -9 11 -10 -3
-19 0 -22 9 -4 9 1 14 14 14 27 0 25 24 -2 38 -31 14 -14 15 36 0z m1266 8 c0
-2 -9 -6 -20 -9 -11 -3 -18 -1 -14 4 5 9 34 13 34 5z m1887 -2 c-3 -3 -12 -4
-19 -1 -8 3 -5 6 6 6 11 1 17 -2 13 -5z m-3527 -14 c0 -5 8 -10 18 -10 9 0 24
-5 32 -10 13 -9 13 -11 0 -19 -10 -7 -20 -5 -31 5 -8 7 -21 14 -27 14 -7 0
-12 7 -12 15 0 8 5 15 10 15 6 0 10 -4 10 -10z m500 -10 c8 -16 8 -20 -3 -20
-8 0 -17 9 -20 20 -3 11 -1 20 4 20 4 0 13 -9 19 -20z m30 16 c0 -3 -4 -8 -10
-11 -5 -3 -10 -1 -10 4 0 6 5 11 10 11 6 0 10 -2 10 -4z m4267 -2 c-3 -3 -12
-4 -19 -1 -8 3 -5 6 6 6 11 1 17 -2 13 -5z m2609 -19 c-46 -23 -50 -24 -79 -9
-42 22 -20 34 63 34 l65 0 -49 -25z m1175 2 c-13 -13 -26 -3 -16 12 3 6 11 8
17 5 6 -4 6 -10 -1 -17z m-10786 -3 c25 -17 33 -34 15 -34 -10 0 -50 36 -50
45 0 9 10 6 35 -11z m2803 4 c-3 -7 -10 -13 -16 -12 -7 1 -22 2 -34 3 -19 1
-20 3 -8 11 22 14 62 12 58 -2z m72 -13 c-23 -24 -50 -33 -50 -17 0 7 54 39
69 41 3 1 -6 -10 -19 -24z m4888 9 c22 -6 4 -23 -18 -17 -14 4 -20 1 -18 -8 3
-16 -39 -14 -58 2 -7 6 -39 8 -73 6 -37 -3 -61 0 -61 6 0 9 -69 4 -130 -10
-21 -5 -23 -3 -12 8 20 22 309 32 370 13z m1722 2 c-19 -19 -76 -34 -66 -17 4
6 3 11 -3 11 -5 0 -13 -4 -16 -10 -3 -5 -27 -10 -52 -10 -28 0 -50 -6 -57 -15
-11 -15 -130 -25 -143 -12 -3 4 18 7 48 7 31 0 61 6 67 13 19 18 119 43 182
46 49 2 53 0 40 -13z m850 4 c-8 -5 -22 -10 -30 -10 -13 0 -13 1 0 10 8 5 22
10 30 10 13 0 13 -1 0 -10z m-9650 -10 c0 -12 -8 -12 -35 0 -18 8 -17 9 8 9
15 1 27 -3 27 -9z m3770 0 c0 -5 -4 -10 -9 -10 -6 0 -13 5 -16 10 -3 6 1 10 9
10 9 0 16 -4 16 -10z m5789 6 c-2 -2 -20 -6 -39 -10 -25 -4 -31 -3 -20 4 14 9
69 15 59 6z m-12731 -28 c-5 -15 -23 -11 -26 6 -2 11 2 14 13 10 9 -4 14 -11
13 -16z m6167 12 c4 -6 -5 -10 -20 -10 -15 0 -24 4 -20 10 3 6 12 10 20 10 8
0 17 -4 20 -10z m940 -20 c-6 -9 -9 -9 -16 1 -10 17 0 34 13 21 6 -6 7 -16 3
-22z m63 18 c-5 -15 -48 -24 -48 -10 0 14 12 22 33 22 10 0 17 -5 15 -12z
m845 -5 c19 -11 13 -13 -48 -12 -143 2 -174 -1 -171 -13 1 -7 1 -10 -1 -5 -3
4 -20 7 -38 7 -35 0 -67 -32 -45 -45 15 -10 12 -35 -5 -35 -8 0 -15 -4 -15
-10 0 -5 -13 -10 -29 -10 -17 0 -33 5 -36 10 -4 6 8 10 29 10 66 0 51 30 -21
43 -29 6 -34 3 -39 -18 -6 -22 -11 -25 -55 -25 -35 0 -49 -4 -49 -14 0 -23
-42 -27 -74 -6 -28 17 -29 20 -11 26 11 5 20 3 23 -4 5 -17 32 -15 32 3 0 11
-11 15 -42 15 -33 0 -39 3 -30 12 8 8 37 11 78 10 49 -2 71 1 84 13 10 9 21
15 26 14 5 -2 24 1 43 5 19 5 50 10 70 11 20 2 54 10 76 19 48 19 213 18 248
-1z m2391 8 c17 -6 17 -8 4 -14 -9 -3 -24 1 -35 8 -14 11 -15 14 -3 14 8 0 24
-4 34 -8z m2011 -1 c-3 -5 -11 -10 -16 -10 -6 0 -7 5 -4 10 3 6 11 10 16 10 6
0 7 -4 4 -10z m825 0 c0 -5 -5 -10 -11 -10 -5 0 -7 5 -4 10 3 6 8 10 11 10 2
0 4 -4 4 -10z m-13300 -15 c10 -12 10 -15 -4 -15 -9 0 -16 7 -16 15 0 8 2 15
4 15 2 0 9 -7 16 -15z m1535 5 c3 -5 2 -10 -4 -10 -5 0 -13 5 -16 10 -3 6 -2
10 4 10 5 0 13 -4 16 -10z m1150 0 c-3 -5 -12 -10 -18 -10 -7 0 -6 4 3 10 19
12 23 12 15 0z m2600 0 c3 -5 -1 -10 -10 -10 -9 0 -13 5 -10 10 3 6 8 10 10
10 2 0 7 -4 10 -10z m2191 -2 c2 -3 2 -13 -2 -22 -8 -21 -63 -22 -78 -1 -6 8
-31 19 -56 24 -38 8 -31 9 43 6 48 -1 90 -5 93 -7z m2354 2 c0 -5 -12 -10 -27
-9 -25 0 -26 1 -8 9 27 12 35 12 35 0z m2810 -25 c-29 -20 -55 -34 -57 -31 -5
5 87 66 100 66 5 0 -15 -16 -43 -35z m-12690 15 c0 -5 -4 -10 -9 -10 -6 0 -13
5 -16 10 -3 6 1 10 9 10 9 0 16 -4 16 -10z m3305 0 c3 -5 -1 -10 -9 -10 -9 0
-16 5 -16 10 0 6 4 10 9 10 6 0 13 -4 16 -10z m2094 1 c9 -6 5 -8 -13 -8 -14
0 -26 3 -26 8 0 11 21 11 39 0z m4341 -12 c0 -11 -54 -39 -75 -39 -25 0 -17
29 10 36 14 3 25 10 25 14 0 5 9 6 20 3 11 -3 20 -9 20 -14z m80 12 c0 -5 -7
-11 -15 -15 -9 -3 -15 0 -15 9 0 8 7 15 15 15 8 0 15 -4 15 -9z m-4830 -16
l25 -15 -25 4 c-14 3 -34 5 -45 5 -17 1 -17 3 -5 11 19 12 20 12 50 -5z m100
5 c0 -5 -7 -7 -15 -4 -8 4 -15 8 -15 10 0 2 7 4 15 4 8 0 15 -4 15 -10z m400
0 c0 -5 -2 -10 -4 -10 -3 0 -8 5 -11 10 -3 6 -1 10 4 10 6 0 11 -4 11 -10z
m4880 -2 c15 -10 29 -10 66 0 26 7 50 9 53 4 3 -4 40 -8 82 -8 43 1 82 -4 90
-10 8 -7 23 -14 34 -17 11 -2 -9 -4 -45 -5 -35 0 -69 2 -75 6 -5 3 -56 5 -112
4 -67 -2 -103 1 -103 7 0 6 -7 11 -16 11 -8 0 -12 5 -9 10 8 13 11 13 35 -2z
m-10410 -8 c0 -5 -4 -10 -10 -10 -5 0 -10 5 -10 10 0 6 5 10 10 10 6 0 10 -4
10 -10z m2900 -24 c7 -9 20 -16 30 -16 10 0 28 -11 41 -25 13 -13 33 -25 44
-25 11 0 31 12 44 25 13 15 18 25 10 25 -7 0 -10 2 -7 5 13 13 35 -7 30 -27
-4 -17 -1 -19 19 -14 13 3 18 3 11 0 -8 -4 -5 -11 10 -25 22 -18 21 -18 -25 1
-60 25 -60 25 -45 0 10 -16 10 -22 -2 -35 -13 -13 -19 -11 -50 18 -19 18 -42
36 -50 40 -45 22 -110 70 -110 81 0 10 35 -10 50 -28z m2040 24 c0 -5 -5 -10
-11 -10 -5 0 -7 5 -4 10 3 6 8 10 11 10 2 0 4 -4 4 -10z m633 3 c-7 -2 -19 -2
-25 0 -7 3 -2 5 12 5 14 0 19 -2 13 -5z m106 -9 c11 -11 -8 -10 -44 2 l-40 13
40 -5 c22 -3 42 -8 44 -10z m511 6 c18 -12 2 -12 -25 0 -13 6 -15 9 -5 9 8 0
22 -4 30 -9z m587 4 c-3 -3 -12 -4 -19 -1 -8 3 -5 6 6 6 11 1 17 -2 13 -5z
m2330 0 c-3 -3 -12 -4 -19 -1 -8 3 -5 6 6 6 11 1 17 -2 13 -5z m78 -4 c4 -6
-9 -10 -32 -9 -30 0 -34 2 -18 9 27 12 43 12 50 0z m4215 0 c0 -5 -10 -10 -22
-9 -22 0 -22 1 -3 9 11 5 21 9 23 9 1 1 2 -3 2 -9z m1803 4 c14 -5 13 -8 -1
-26 -14 -16 -48 -37 -72 -43 -3 0 -31 -11 -63 -23 -63 -24 -101 -30 -49 -7 33
14 44 28 18 23 -8 -2 -15 1 -15 7 -1 5 14 10 33 12 19 1 45 8 58 15 25 13 28
14 56 18 12 1 13 3 3 7 -11 5 -11 7 0 14 17 11 14 10 32 3z m-13502 -19 c0 -5
-9 -11 -21 -13 -20 -3 -27 8 -13 22 10 9 34 3 34 -9z m1811 -45 c4 0 8 -5 8
-12 0 -7 -6 -6 -17 4 -11 9 -31 14 -52 11 -24 -3 -32 -1 -29 9 3 7 -2 19 -11
26 -14 10 -12 11 13 6 23 -6 27 -4 21 7 -5 8 7 -1 25 -18 19 -18 37 -33 42
-33z m4118 50 c0 -5 -4 -10 -9 -10 -6 0 -13 5 -16 10 -3 6 1 10 9 10 9 0 16
-4 16 -10z m4020 3 c0 -12 -51 -33 -79 -34 -27 0 -74 -17 -56 -19 6 -1 0 -5
-12 -10 -23 -10 -63 -3 -63 11 0 5 10 9 23 10 28 1 38 3 112 28 68 23 75 24
75 14z m104 -7 l27 -14 -31 -4 c-29 -4 -57 12 -43 25 9 10 17 9 47 -7z m-9804
-6 c0 -5 -4 -10 -10 -10 -5 0 -10 5 -10 10 0 6 5 10 10 10 6 0 10 -4 10 -10z
m730 0 c0 -5 -4 -10 -10 -10 -5 0 -10 5 -10 10 0 6 5 10 10 10 6 0 10 -4 10
-10z m2115 -1 c4 -6 5 -12 2 -15 -7 -7 -37 7 -37 17 0 13 27 11 35 -2z m1464
-1 c11 -11 12 -10 6 1 -5 9 -3 12 6 9 8 -3 13 -11 11 -18 -1 -7 2 -18 8 -25 7
-8 7 -16 2 -19 -6 -3 -13 1 -16 10 -4 10 -14 14 -26 11 -20 -5 -55 24 -43 36
10 11 38 8 52 -5z m495 0 c-7 -11 -41 -10 -49 1 -3 5 8 9 24 9 17 -1 28 -5 25
-10z m2720 5 c39 -10 -2 -20 -59 -15 -46 4 -54 7 -35 13 29 8 67 9 94 2z
m2711 -3 c-3 -5 -20 -10 -36 -10 -18 0 -28 4 -24 10 3 6 20 10 36 10 18 0 28
-4 24 -10z m-10055 -10 c0 -5 -4 -10 -9 -10 -6 0 -13 5 -16 10 -3 6 1 10 9 10
9 0 16 -4 16 -10z m2857 -15 c15 -8 26 -15 23 -16 -51 -12 -137 11 -124 33 8
12 63 2 101 -17z m400 19 c-3 -3 -12 -4 -19 -1 -8 3 -5 6 6 6 11 1 17 -2 13
-5z m1639 -26 c-1 -26 4 -33 23 -38 14 -3 26 -11 29 -18 4 -14 -14 -16 -23 -2
-3 6 -16 10 -29 10 -33 0 -48 19 -29 38 10 11 12 17 4 20 -18 6 -13 22 7 22
14 0 18 -8 18 -32z m2834 22 c12 -8 10 -10 -11 -10 -14 0 -40 -11 -59 -25 -19
-14 -47 -25 -62 -25 -24 0 -37 -16 -25 -34 1 -2 -6 -13 -16 -24 -11 -12 -38
-23 -68 -27 -27 -4 -51 -11 -55 -16 -8 -13 -24 -11 -21 4 1 9 -13 11 -55 9
-66 -4 -73 6 -26 36 25 16 36 18 46 9 8 -6 21 -12 30 -13 10 0 22 -2 27 -4 24
-6 41 2 50 23 8 17 17 21 39 19 23 -3 28 -1 23 12 -5 11 4 18 32 26 22 6 41
17 44 24 9 22 81 33 107 16z m2000 1 c0 -12 -21 -19 -37 -13 -22 8 -14 22 12
22 14 0 25 -4 25 -9z m-10077 -15 c6 -15 -1 -26 -15 -26 -4 0 -8 9 -8 20 0 23
15 27 23 6z m547 4 c0 -5 -4 -10 -9 -10 -6 0 -13 5 -16 10 -3 6 1 10 9 10 9 0
16 -4 16 -10z m3136 -5 c40 -17 37 -35 -6 -35 -30 0 -64 25 -55 41 8 12 20 11
61 -6z m3794 5 c0 -5 -9 -10 -20 -10 -11 0 -20 5 -20 10 0 6 9 10 20 10 11 0
20 -4 20 -10z m410 0 c-20 -13 -40 -13 -40 0 0 6 12 10 28 10 21 0 24 -2 12
-10z m2250 0 c12 -8 11 -10 -7 -10 -12 0 -25 5 -28 10 -8 13 15 13 35 0z
m-10210 -45 c0 -18 -4 -23 -16 -18 -8 3 -13 12 -10 19 3 7 1 16 -4 19 -20 12
-10 26 10 15 12 -6 20 -21 20 -35z m751 32 c-1 -12 -15 -9 -19 4 -3 6 1 10 8
8 6 -3 11 -8 11 -12z m4331 -5 c-22 -3 -23 -4 -5 -17 17 -13 17 -14 0 -20 -11
-5 -25 -1 -37 10 -14 13 -28 16 -54 11 -20 -4 -37 -2 -41 3 -7 12 22 20 90 23
53 3 87 -5 47 -10z m1263 12 c25 -10 -1 -24 -44 -24 -29 0 -32 2 -21 15 13 16
38 19 65 9z m75 -9 c0 -8 -9 -15 -20 -15 -20 0 -26 11 -13 23 12 13 33 7 33
-8z m65 5 c3 -6 -1 -13 -10 -16 -19 -8 -30 0 -20 15 8 14 22 14 30 1z m2732
-1 c-14 -8 -22 -8 -30 0 -8 8 -3 11 19 11 25 -1 27 -2 11 -11z m3440 -5 c-16
-9 -31 -13 -34 -10 -3 3 5 10 18 15 37 15 47 12 16 -5z m-8647 2 c0 -11 -19
-15 -25 -6 -3 5 1 10 9 10 9 0 16 -2 16 -4z m1169 -12 c2 -2 2 -6 -1 -9 -8 -9
-58 6 -58 16 0 8 48 2 59 -7z m2507 1 c-30 -16 -43 -14 -31 4 3 6 18 11 33 11
l27 0 -29 -15z m1597 8 c-7 -2 -19 -2 -25 0 -7 3 -2 5 12 5 14 0 19 -2 13 -5z
m-5334 -12 c7 -5 10 -14 7 -20 -5 -7 2 -11 16 -11 13 0 30 -5 38 -10 11 -7 6
-10 -20 -10 -20 0 -42 -6 -49 -12 -8 -7 -11 -8 -8 -2 10 18 -28 45 -75 52
l-43 7 55 6 c30 3 57 6 60 7 3 1 11 -2 19 -7z m696 -9 c-3 -3 -11 0 -18 7 -9
10 -8 11 6 5 10 -3 15 -9 12 -12z m580 -2 c-19 -21 -37 -18 -28 5 3 8 14 15
26 15 19 0 19 -1 2 -20z m2315 11 c0 -10 -35 -21 -72 -21 -27 0 -43 12 -31 24
10 9 103 7 103 -3z m2115 -12 c-4 -5 -13 -9 -22 -9 -13 0 -13 3 -3 15 13 15
35 11 25 -6z m3864 6 c-15 -8 -29 -21 -33 -30 -5 -15 -26 -21 -26 -7 0 9 62
52 75 52 5 -1 -2 -7 -16 -15z m-11869 -5 c0 -5 -5 -10 -11 -10 -5 0 -7 5 -4
10 3 6 8 10 11 10 2 0 4 -4 4 -10z m90 -4 c31 3 33 2 18 -10 -13 -9 -14 -16
-6 -24 17 -17 2 -27 -16 -11 -34 30 -46 39 -55 39 -5 0 -13 4 -16 10 -4 6 2 7
17 2 13 -5 39 -7 58 -6z m1690 3 c0 -6 -8 -8 -17 -5 -15 5 -15 3 1 -9 16 -12
17 -18 7 -28 -10 -9 -15 -9 -24 4 -7 8 -20 18 -30 22 -10 4 -16 11 -13 15 8
13 76 13 76 1z m674 -21 c6 -4 13 -3 16 3 4 5 19 3 38 -7 33 -16 40 -28 21
-39 -13 -9 -109 36 -109 51 0 17 14 27 19 12 2 -7 9 -16 15 -20z m2463 21
c-14 -8 -22 -8 -30 0 -8 8 -3 11 19 11 25 -1 27 -2 11 -11z m713 -5 c0 -12 7
-14 28 -10 15 2 45 7 67 11 38 6 39 6 18 -9 -12 -9 -30 -15 -40 -14 -49 4 -84
-4 -110 -26 -30 -25 -48 -23 -81 11 -11 11 -10 14 5 19 10 3 27 10 38 14 18 8
44 15 68 19 4 0 7 -6 7 -15z m-9755 -4 c3 -5 -1 -10 -10 -10 -9 0 -13 5 -10
10 3 6 8 10 10 10 2 0 7 -4 10 -10z m4331 -11 c19 -22 19 -22 -3 -10 -24 12
-39 31 -25 31 5 0 17 -10 28 -21z m1174 11 c0 -12 -27 -12 -55 0 -16 7 -13 9
18 9 20 1 37 -3 37 -9z m1687 4 c-3 -3 -12 -4 -19 -1 -8 3 -5 6 6 6 11 1 17
-2 13 -5z m917 -6 c-3 -4 -21 -8 -40 -8 -20 0 -33 4 -29 10 3 5 21 9 40 8 19
-1 32 -5 29 -10z m2726 5 c-8 -4 -28 -16 -45 -29 -34 -26 -93 -39 -130 -30
-33 9 -23 25 15 24 16 -1 40 6 53 15 21 14 57 22 107 25 13 0 13 0 0 -5z
m1100 -3 c0 -5 -10 -10 -22 -10 -19 0 -20 2 -8 10 19 13 30 13 30 0z m80 0 c0
-5 -4 -10 -9 -10 -6 0 -13 5 -16 10 -3 6 1 10 9 10 9 0 16 -4 16 -10z m3265 0
c-3 -5 -13 -10 -21 -10 -8 0 -12 5 -9 10 3 6 13 10 21 10 8 0 12 -4 9 -10z
m-9712 -37 c-3 -8 3 -13 17 -13 15 0 20 -4 17 -15 -4 -8 -2 -17 4 -20 10 -7 3
-25 -10 -25 -4 0 -14 12 -22 28 -8 15 -22 33 -31 40 -24 18 -13 45 12 30 10
-6 16 -18 13 -25z m1698 27 c10 0 19 -7 19 -15 0 -8 -7 -15 -15 -15 -8 0 -15
4 -15 8 0 5 -10 14 -22 21 -14 7 -16 9 -5 6 10 -3 27 -5 38 -5z m110 0 c5 0 9
-4 9 -8 0 -5 -13 -7 -30 -4 -16 2 -27 9 -24 14 3 5 13 7 21 4 8 -3 19 -6 24
-6z m2194 -4 c28 -1 31 -6 27 -35 -3 -17 -124 -33 -162 -21 -70 23 -104 29
-115 20 -10 -8 -53 15 -44 25 3 2 32 0 64 -5 62 -10 135 1 135 21 0 7 12 8 33
3 17 -4 46 -8 62 -8z m475 -53 c-30 -15 -79 -16 -100 -3 -12 7 -10 11 10 19
14 5 19 10 13 10 -7 1 -13 6 -13 11 0 6 23 10 50 10 33 0 50 4 51 13 1 6 4 -1
8 -18 6 -26 3 -32 -19 -42z m665 57 c-3 -5 -13 -10 -21 -10 -8 0 -14 5 -14 10
0 6 9 10 21 10 11 0 17 -4 14 -10z m701 -5 c-11 -8 -27 -15 -37 -15 -9 0 -22
-7 -29 -15 -14 -17 -36 -20 -44 -6 -10 15 57 51 94 51 33 -1 34 -2 16 -15z
m67 8 c-7 -2 -21 -2 -30 0 -10 3 -4 5 12 5 17 0 24 -2 18 -5z m2983 -41 c-11
-10 -15 4 -8 28 l7 25 3 -23 c2 -13 1 -26 -2 -30z m873 7 c-18 -11 -31 11 -17
29 10 11 13 10 21 -4 6 -11 5 -19 -4 -25z m701 33 c0 -13 -12 -22 -22 -16 -10
6 -1 24 13 24 5 0 9 -4 9 -8z m-12805 -12 c-3 -5 -12 -10 -20 -10 -8 0 -17 5
-20 10 -4 6 5 10 20 10 15 0 24 -4 20 -10z m856 -22 c9 -17 8 -18 -10 -6 -25
15 -36 39 -15 31 8 -3 19 -14 25 -25z m2148 18 c7 -8 26 -18 44 -22 33 -7 60
-28 50 -38 -9 -9 -63 -7 -63 2 0 5 -10 8 -22 8 -13 -1 -22 4 -20 12 1 6 -7 12
-19 12 -28 0 -61 19 -54 31 9 14 71 11 84 -5z m599 7 c-10 -2 -26 -2 -35 0
-10 3 -2 5 17 5 19 0 27 -2 18 -5z m3287 -14 c-10 -15 -25 -10 -19 6 4 8 10
12 15 9 5 -3 7 -10 4 -15z m2880 11 c23 -6 18 -8 -23 -5 -29 1 -55 5 -59 9 -8
8 44 6 82 -4z m2220 0 c-3 -5 -14 -10 -23 -10 -15 0 -15 2 -2 10 20 13 33 13
25 0z m-6928 -6 c-3 -3 -12 -4 -19 -1 -8 3 -5 6 6 6 11 1 17 -2 13 -5z m1620
0 c-3 -3 -12 -4 -19 -1 -8 3 -5 6 6 6 11 1 17 -2 13 -5z m2316 -1 c-7 -2 -19
-2 -25 0 -7 3 -2 5 12 5 14 0 19 -2 13 -5z m-8963 -13 c12 -8 11 -10 -7 -10
-13 0 -23 5 -23 10 0 13 11 13 30 0z m632 -16 c32 -3 38 -5 38 -14 0 -12 -53
-1 -58 12 -2 4 -8 6 -13 3 -5 -4 -6 1 -2 10 4 13 7 14 14 3 4 -7 14 -13 21
-14z m3038 0 c24 -23 -20 -18 -50 7 l-25 21 30 -7 c17 -3 37 -13 45 -21z
m1270 16 c0 -6 -10 -14 -22 -19 -12 -4 -17 -10 -12 -13 30 -18 97 -33 149 -33
33 -1 74 -7 90 -15 l30 -13 -30 -7 c-54 -13 -126 -11 -141 5 -11 11 -21 12
-41 4 -14 -5 -41 -7 -59 -3 -21 4 -40 2 -49 -6 -18 -15 -37 -4 -30 19 4 15 -2
16 -58 11 -34 -3 -79 -14 -100 -24 -31 -15 -44 -17 -80 -8 -23 6 -64 13 -92
16 -27 3 -59 7 -70 9 -11 3 -36 7 -57 11 -20 4 -39 13 -42 21 -3 8 -18 15 -32
15 -38 0 -27 6 24 14 34 5 42 3 42 -9 0 -8 9 -15 19 -15 11 0 23 -4 26 -10 7
-12 115 -13 133 -1 9 5 -5 11 -40 15 -100 13 -121 18 -106 27 18 12 205 11
213 0 3 -6 -2 -14 -11 -19 -16 -9 -16 -10 2 -20 22 -11 130 2 151 20 12 9 38
7 76 -8 8 -3 23 3 33 14 26 27 84 42 84 22z m2005 0 c-3 -5 -15 -10 -26 -10
-10 0 -19 5 -19 10 0 6 12 10 26 10 14 0 23 -4 19 -10z m-2779 -15 c-4 -10 1
-15 14 -15 11 0 20 -4 20 -10 0 -5 -8 -10 -18 -10 -10 0 -23 -5 -29 -11 -9 -9
-16 -8 -27 2 -8 8 -22 20 -31 27 -23 20 -9 32 37 32 32 0 39 -3 34 -15z m1324
-1 c0 -2 -9 -4 -21 -4 -11 0 -18 4 -14 10 5 8 35 3 35 -6z m114 -1 c18 -11
-21 -22 -59 -16 -47 7 -49 8 -40 23 7 11 77 5 99 -7z m3191 -8 c-30 -25 -46
-27 -52 -9 -4 13 33 32 62 33 17 1 16 -3 -10 -24z m-4985 5 c3 -1 -15 -6 -40
-10 -47 -8 -64 -5 -55 10 4 7 81 7 95 0z m-2815 -10 c3 -5 1 -10 -4 -10 -6 0
-11 5 -11 10 0 6 2 10 4 10 3 0 8 -4 11 -10z m116 -16 c8 -8 20 -14 26 -14 12
0 26 -30 18 -38 -2 -3 -10 0 -17 6 -7 5 -24 12 -38 14 -14 1 -23 6 -20 9 3 4
-4 17 -15 29 l-20 23 25 -8 c14 -4 32 -14 41 -21z m2039 22 c0 -2 -7 -6 -15
-10 -8 -3 -15 -1 -15 4 0 6 7 10 15 10 8 0 15 -2 15 -4z m176 -6 c14 0 22 -4
19 -10 -3 -5 -24 -10 -45 -10 -32 0 -38 3 -33 16 3 8 12 13 20 10 8 -3 26 -6
39 -6z m4021 -5 c21 -5 30 -12 26 -21 -7 -19 -43 -18 -43 1 0 14 -23 20 -57
16 -6 -1 -15 4 -18 10 -7 11 21 9 92 -6z m1189 8 c13 -5 7 -11 -27 -28 -37
-20 -45 -21 -57 -8 -18 18 -7 30 33 36 17 2 31 5 32 6 1 0 9 -2 19 -6z m2670
0 c-3 -4 4 -13 16 -20 17 -9 19 -12 6 -13 -9 0 -25 -3 -35 -6 -13 -4 -14 -3
-5 3 7 6 12 14 11 19 -2 14 0 24 8 24 3 0 3 -3 -1 -7z m662 -18 c-20 -14 -41
-25 -45 -25 -15 0 52 49 67 50 8 0 -2 -11 -22 -25z m-11448 -4 c0 -3 -4 -12
-9 -19 -6 -10 -10 -10 -20 2 -15 18 -6 37 14 29 8 -3 15 -8 15 -12z m3556 4
c12 -9 14 -14 6 -15 -8 0 -12 -9 -10 -22 2 -19 -1 -23 -20 -21 -12 2 -36 13
-52 25 -27 20 -28 22 -12 34 23 18 64 17 88 -1z m2599 5 c-3 -5 -16 -10 -28
-10 -18 0 -19 2 -7 10 20 13 43 13 35 0z m1598 3 c-7 -2 -19 -2 -25 0 -7 3 -2
5 12 5 14 0 19 -2 13 -5z m3907 -9 c-11 -13 -10 -16 8 -21 24 -6 30 -22 10
-24 -10 0 -10 -2 0 -6 10 -4 10 -8 1 -19 -14 -18 -69 -18 -102 -1 -25 13 -25
13 -5 26 18 11 20 11 15 -3 -4 -10 -1 -13 9 -9 7 3 14 12 14 21 0 19 30 51 49
51 11 1 11 -2 1 -15z m-8880 -5 c0 -5 4 -8 10 -4 14 9 60 -6 60 -19 0 -15 -57
-37 -77 -29 -12 5 -12 7 -1 14 9 6 5 9 -14 9 -15 0 -40 6 -55 13 l-27 12 44 6
c25 3 48 7 53 7 4 1 7 -3 7 -9z m2520 1 c11 -7 12 -12 3 -21 -15 -15 -43 -5
-43 16 0 17 18 19 40 5z m2250 3 c0 -5 -15 -17 -33 -28 -31 -21 -67 -23 -67
-4 0 5 8 9 18 9 9 0 26 7 36 15 21 16 46 20 46 8z m3125 -3 c-3 -5 -11 -10
-16 -10 -6 0 -7 5 -4 10 3 6 11 10 16 10 6 0 7 -4 4 -10z m-10210 -10 c3 -5 1
-10 -4 -10 -6 0 -11 5 -11 10 0 6 2 10 4 10 3 0 8 -4 11 -10z m104 -13 c12
-15 12 -17 -3 -11 -9 3 -16 13 -16 22 0 8 1 13 3 11 1 -2 9 -12 16 -22z m1981
13 c13 -8 13 -10 -2 -10 -9 0 -20 5 -23 10 -8 13 5 13 25 0z m3527 -18 c-8
-10 -13 -22 -10 -28 5 -15 -50 -34 -98 -34 -38 0 -39 1 -39 34 0 41 5 43 93
44 63 0 67 -1 54 -16z m5118 8 c-11 -5 -27 -9 -35 -9 -13 -1 -13 0 0 9 8 5 24
9 35 9 l20 0 -20 -9z m-11465 -19 c0 -4 -3 -11 -7 -14 -8 -9 -34 13 -28 24 6
9 35 1 35 -10z m697 3 c-3 -3 -12 -4 -19 -1 -8 3 -5 6 6 6 11 1 17 -2 13 -5z
m2536 -1 c10 -9 -12 -33 -26 -28 -7 2 -25 7 -42 11 l-30 7 30 7 c41 10 60 11
68 3z m777 -9 c0 -2 -7 -4 -15 -4 -8 0 -15 4 -15 10 0 5 7 7 15 4 8 -4 15 -8
15 -10z m1920 -5 c0 -4 -5 -11 -11 -15 -8 -5 -6 -10 5 -16 17 -10 22 -38 7
-38 -22 0 -39 13 -35 25 3 7 -5 14 -20 17 -15 3 -27 0 -30 -8 -3 -8 -13 -14
-21 -14 -9 0 -23 -7 -31 -15 -9 -8 -20 -15 -25 -15 -5 0 -12 7 -15 15 -4 8
-12 15 -20 15 -8 0 -14 -7 -14 -15 0 -10 -10 -15 -30 -15 -20 0 -30 5 -30 15
0 8 6 15 14 15 15 0 19 40 5 50 -4 3 20 6 54 7 34 1 68 -3 75 -9 8 -7 16 -7
25 0 23 20 97 21 97 1z m1488 4 c2 -8 -6 -13 -22 -13 -25 0 -33 10 -19 24 10
10 36 3 41 -11z m-8375 -8 c1 -5 -6 -11 -15 -13 -11 -2 -18 3 -18 13 0 17 30
18 33 0z m1630 1 c12 -9 14 -16 8 -21 -6 -3 -18 0 -26 9 -27 27 -14 36 18 12z
m250 7 c-7 -2 -21 -2 -30 0 -10 3 -4 5 12 5 17 0 24 -2 18 -5z m2452 -3 c-3
-5 -12 -7 -20 -3 -21 7 -19 13 6 13 11 0 18 -4 14 -10z m8015 6 c0 -2 -7 -7
-16 -10 -8 -3 -12 -2 -9 4 6 10 25 14 25 6z m613 -11 c-3 -9 -8 -14 -10 -11
-3 3 -2 9 2 15 9 16 15 13 8 -4z m-11247 -48 c-3 -23 -5 -44 -5 -46 -1 -2 -14
-1 -31 1 -20 3 -30 0 -30 -9 0 -17 -6 -16 -41 4 -16 10 -29 23 -29 31 0 8 -10
22 -22 32 -37 29 -13 34 47 10 l55 -22 21 26 c27 35 41 24 35 -27z m209 43 c3
-5 2 -10 -4 -10 -5 0 -13 5 -16 10 -3 6 -2 10 4 10 5 0 13 -4 16 -10z m2802
-10 c3 -11 13 -20 22 -21 12 0 10 -3 -6 -11 -12 -6 -34 -7 -50 -3 -26 6 -26 8
-10 19 9 7 17 18 17 25 0 19 22 12 27 -9z m1318 10 c-4 -7 13 -9 47 -8 29 2
55 -1 58 -7 3 -6 -20 -11 -56 -13 -55 -3 -62 -1 -67 18 -3 13 0 20 10 20 8 0
11 -5 8 -10z m7006 -8 c-7 -12 -22 -18 -53 -19 l-43 -2 35 19 c47 25 74 26 61
2z m-12046 -3 c10 -15 -1 -23 -20 -15 -9 3 -13 10 -10 16 8 13 22 13 30 -1z
m8265 2 c0 -10 -30 -24 -37 -17 -3 3 -2 9 2 15 8 13 35 15 35 2z m3060 -12 c0
-5 -3 -9 -7 -10 -5 0 -18 -2 -30 -3 -28 -3 -43 -16 -19 -16 19 0 17 -24 -2
-26 -7 -1 -16 -2 -22 -3 -5 0 -10 -7 -10 -14 0 -18 -34 -49 -43 -40 -12 12 -7
43 7 43 7 0 19 7 26 15 8 9 9 15 2 15 -6 0 -14 -4 -17 -10 -3 -5 -11 -10 -16
-10 -19 0 3 21 53 49 47 27 78 31 78 10z m-11955 1 c-3 -5 -18 -10 -33 -9
l-27 1 25 8 c35 11 42 11 35 0z m1462 4 c-3 -3 -12 -4 -19 -1 -8 3 -5 6 6 6
11 1 17 -2 13 -5z m2510 0 c-3 -3 -12 -4 -19 -1 -8 3 -5 6 6 6 11 1 17 -2 13
-5z m8058 -4 c-28 -12 -37 -12 -30 0 3 6 16 10 28 9 21 0 21 -1 2 -9z m89 -15
c-19 -14 -19 -14 1 -15 14 -1 9 -6 -15 -14 -29 -11 -31 -14 -15 -18 l20 -5
-20 -7 c-43 -15 -107 -50 -133 -72 -31 -27 -54 -30 -71 -10 -7 8 -21 12 -31 9
-24 -6 -26 9 -5 27 10 8 15 9 15 2 0 -6 7 -9 15 -6 11 4 12 10 6 18 -6 7 -6
18 -1 25 11 19 41 6 34 -14 -5 -11 -2 -14 12 -9 11 4 25 12 32 18 11 8 10 11
-7 18 -22 8 -29 28 -10 28 5 0 7 -4 4 -10 -3 -5 0 -10 9 -10 8 0 16 4 18 9 2
6 26 15 53 22 28 6 61 17 75 24 31 17 40 10 14 -10z m-11444 11 c0 -3 -4 -8
-10 -11 -5 -3 -10 -1 -10 4 0 6 5 11 10 11 6 0 10 -2 10 -4z m216 -4 c6 -4 11
-14 11 -22 0 -8 4 -23 8 -32 9 -22 -8 -24 -25 -3 -7 8 -18 15 -24 15 -6 0 -17
9 -24 20 -7 12 -8 20 -2 20 5 0 10 -4 10 -10 0 -5 7 -7 15 -4 8 4 12 10 9 15
-6 11 7 12 22 1z m8264 4 c0 -2 -7 -7 -16 -10 -8 -3 -12 -2 -9 4 6 10 25 14
25 6z m1670 0 c0 -11 -19 -15 -25 -6 -3 5 1 10 9 10 9 0 16 -2 16 -4z m1445
-6 c-11 -5 -31 -9 -45 -9 -20 -1 -22 1 -10 9 8 5 29 9 45 9 26 0 27 -2 10 -9z
m470 0 c-3 -5 -15 -10 -26 -10 -11 0 -17 5 -14 10 3 6 15 10 26 10 11 0 17 -4
14 -10z m155 -14 c-5 -13 -6 -27 -2 -31 3 -3 -1 -3 -11 1 -21 8 -21 13 0 36
21 24 24 23 13 -6z m-12159 -6 c31 -26 15 -26 -18 0 -14 11 -21 20 -15 20 5 0
20 -9 33 -20z m5154 10 c3 -5 -3 -10 -14 -10 -12 0 -21 5 -21 10 0 6 6 10 14
10 8 0 18 -4 21 -10z m-4720 -46 c8 -13 11 -24 6 -24 -5 0 -15 -2 -23 -5 -17
-6 -43 15 -52 41 -6 18 -3 20 23 16 17 -2 37 -14 46 -28z m9680 26 c3 -5 -1
-10 -9 -10 -8 0 -18 5 -21 10 -3 6 1 10 9 10 8 0 18 -4 21 -10z m-9898 -6 c-3
-3 -12 -4 -19 -1 -8 3 -5 6 6 6 11 1 17 -2 13 -5z m9733 -4 c0 -5 -6 -10 -13
-10 -8 0 -22 -9 -32 -20 -18 -20 -62 -29 -50 -11 3 5 0 11 -7 14 -7 2 -3 3 8
1 12 -2 24 2 27 10 5 12 15 17 60 25 4 0 7 -3 7 -9z m-2650 -20 c0 -5 -2 -10
-4 -10 -3 0 -8 5 -11 10 -3 6 -1 10 4 10 6 0 11 -4 11 -10z m4843 -5 c24 -17
12 -42 -25 -49 -24 -5 -36 -1 -51 14 -10 12 -16 27 -14 35 7 17 67 17 90 0z
m-4243 -20 c0 -16 -35 -21 -44 -6 -8 12 4 21 26 21 10 0 18 -7 18 -15z m3515
6 c3 -5 -3 -16 -13 -23 -10 -7 -25 -26 -33 -42 -8 -16 -21 -32 -29 -34 -11 -4
-11 1 4 22 10 15 15 30 13 33 -8 7 -47 -16 -47 -27 0 -6 -9 -10 -21 -10 -11 0
-29 -5 -41 -11 -11 -6 -23 -8 -26 -4 -9 9 79 84 98 84 9 0 1 -12 -20 -31 -19
-16 -26 -26 -15 -20 11 6 36 24 55 41 35 30 64 39 75 22z m65 -1 c0 -5 -7 -10
-15 -10 -8 0 -15 5 -15 10 0 6 7 10 15 10 8 0 15 -4 15 -10z m-4470 -7 c0 -1
-9 -7 -20 -13 -25 -13 -71 -3 -49 11 12 7 69 9 69 2z m950 -3 c0 -13 -11 -13
-30 0 -12 8 -11 10 8 10 12 0 22 -4 22 -10z m3620 -4 c0 -3 -4 -8 -10 -11 -5
-3 -10 -1 -10 4 0 6 5 11 10 11 6 0 10 -2 10 -4z m-1690 -10 c0 -3 -4 -8 -10
-11 -5 -3 -10 -1 -10 4 0 6 5 11 10 11 6 0 10 -2 10 -4z m1555 -26 c-8 -14 41
-13 67 1 14 7 23 8 30 1 15 -15 -10 -37 -44 -38 -15 -1 -39 -11 -55 -21 -22
-16 -34 -18 -55 -11 -16 5 -28 14 -28 20 0 6 7 7 16 4 19 -7 47 12 38 25 -8
13 5 29 22 29 8 0 12 -4 9 -10z m385 0 c0 -5 -4 -10 -10 -10 -5 0 -10 5 -10
10 0 6 5 10 10 10 6 0 10 -4 10 -10z m-36 -27 c11 -26 -11 -40 -28 -18 -11 15
-11 22 -3 27 18 11 24 10 31 -9z m-179 -3 c-3 -5 -12 -10 -19 -10 -8 0 -19 -6
-25 -14 -6 -8 -22 -16 -34 -19 -12 -2 -31 -8 -42 -12 -20 -8 -20 -8 0 14 11
12 27 20 36 18 10 -3 20 1 23 8 4 12 16 16 59 24 5 0 5 -3 2 -9z m-2825 -421
c0 -12 -47 -12 -54 0 -3 4 -3 10 0 13 7 8 54 -3 54 -13z m911 1 c22 0 38 -3
36 -7 -7 -12 -107 -3 -107 9 0 6 7 7 16 4 9 -3 34 -6 55 -6z m-377 -18 c2 -4
-7 -9 -22 -10 -21 -1 -24 0 -12 8 18 12 27 12 34 2z m-474 -43 c0 -7 10 -9 25
-7 14 3 25 2 25 -2 0 -4 15 -11 34 -14 34 -6 54 -32 39 -47 -5 -5 -38 -10 -73
-11 -36 -1 -76 -8 -90 -15 -14 -7 -34 -13 -46 -13 -13 0 -25 -10 -33 -26 -11
-25 -15 -26 -59 -20 -117 17 -143 18 -154 8 -7 -5 -44 -11 -83 -13 -41 -1 -80
-9 -95 -18 -28 -17 -288 -33 -327 -19 -12 4 -25 3 -28 -2 -15 -25 -39 -5 -43
34 -1 13 -24 26 -49 26 -13 0 -23 3 -23 8 0 4 26 6 57 5 32 -1 65 3 75 8 11 6
42 4 86 -6 65 -13 73 -13 123 6 30 10 62 24 71 29 10 6 38 10 62 10 25 0 48 5
51 10 4 6 23 10 43 10 89 -2 311 19 357 33 28 8 42 16 33 16 -25 1 -23 21 2
21 11 0 20 -5 20 -11z m-5390 -14 c0 -8 -4 -15 -10 -15 -5 0 -10 7 -10 15 0 8
5 15 10 15 6 0 10 -7 10 -15z m1225 -15 c4 -6 -7 -10 -27 -10 -25 0 -29 3 -18
10 19 13 37 13 45 0z m-1370 -40 c18 -8 17 -9 -7 -9 -15 -1 -30 4 -33 9 -7 12
12 12 40 0z m3716 -10 c59 9 65 8 80 -11 15 -20 25 -21 179 -21 128 0 168 -3
186 -14 17 -12 43 -14 110 -10 48 3 91 9 97 15 5 5 16 7 23 4 8 -3 21 0 29 7
8 6 19 9 24 6 5 -4 12 -2 16 4 10 16 28 12 21 -5 -3 -8 -2 -15 2 -15 15 0 11
-45 -5 -63 -16 -17 -16 -17 3 -12 10 4 6 -2 -11 -12 -30 -17 -150 -34 -255
-35 -191 -3 -409 4 -504 14 -164 17 -188 15 -286 -30 -46 -22 -34 -21 -360
-29 -325 -7 -337 -7 -405 -3 -27 1 -91 0 -140 -5 -81 -6 -93 -5 -114 13 -36
28 -22 47 48 62 34 7 64 17 67 22 4 5 33 6 69 3 36 -4 70 -3 81 3 11 5 57 13
104 16 148 11 304 28 345 38 22 6 56 12 75 13 19 1 53 9 76 18 28 11 72 15
145 15 75 -1 112 3 133 14 24 12 34 13 66 2 27 -9 54 -10 101 -4z m3146 -2
c20 -17 16 -22 -29 -38 -34 -12 -98 -15 -288 -16 -135 0 -251 -3 -257 -7 -7
-5 -17 2 -24 15 -6 13 -8 20 -4 16 4 -4 17 -2 28 4 11 6 56 10 100 10 44 -1
110 3 146 9 168 27 300 30 328 7z m-964 -14 c3 -3 59 -7 124 -9 65 -2 143 -7
173 -12 l55 -8 -90 -14 c-100 -16 -303 -15 -322 1 -9 7 -32 3 -81 -15 -58 -21
-75 -24 -117 -16 -57 11 -70 19 -29 19 17 0 34 4 40 10 5 5 27 12 49 16 22 3
45 10 50 14 6 5 35 10 65 13 30 2 60 4 66 5 6 1 13 -1 17 -4z m-1363 -14 c0
-5 -7 -10 -15 -10 -8 0 -15 5 -15 10 0 6 7 10 15 10 8 0 15 -4 15 -10z m-2685
-75 c55 -3 112 -5 128 -5 17 0 27 -5 27 -15 0 -8 7 -15 16 -15 12 0 9 -6 -10
-21 -23 -18 -40 -21 -99 -20 -143 3 -304 3 -392 0 -49 -1 -110 -1 -135 0 -25
1 -74 -1 -109 -5 -39 -4 -84 -2 -117 5 -98 22 -57 48 83 53 48 1 110 8 138 15
27 7 70 11 95 9 25 -2 62 -1 81 4 18 4 70 6 114 4 44 -2 125 -6 180 -9z m280
-15 c3 -5 15 -10 26 -10 22 0 26 -32 5 -49 -18 -15 -106 -3 -107 15 -1 8 -2
20 -3 26 -1 11 20 19 66 27 4 0 10 -3 13 -9z m-1430 -41 c4 -6 5 -13 2 -16
-12 -12 -92 -23 -123 -17 -34 6 -46 28 -21 37 24 10 136 7 142 -4z m-1039 -44
c18 -3 37 -12 43 -19 9 -11 -1 -16 -51 -27 -70 -16 -275 -16 -290 -1 -15 15
31 42 72 43 19 1 46 4 60 8 27 8 114 6 166 -4z m5076 -166 c106 -12 133 -24
122 -53 -7 -19 -33 -19 -254 0 -74 6 -110 22 -110 50 0 23 61 23 242 3z
m-2104 -24 c75 -7 112 -26 112 -59 0 -19 -82 -52 -167 -66 -66 -11 -76 -10
-115 8 -24 11 -56 25 -73 32 -32 14 -116 31 -152 30 -13 0 -23 5 -23 10 0 6 6
10 13 10 8 0 29 8 48 17 54 28 173 34 357 18z m-1064 -19 c32 -11 46 -11 88 1
41 12 64 13 127 4 42 -6 77 -16 79 -21 2 -5 13 -6 25 -1 12 4 39 6 59 4 23 -3
46 2 61 12 25 16 77 12 77 -5 0 -5 7 -16 16 -24 8 -9 11 -16 5 -16 -6 0 -11
-13 -11 -29 0 -25 -5 -30 -36 -35 -26 -5 -34 -11 -30 -22 4 -11 0 -13 -19 -8
-19 5 -25 2 -25 -10 0 -13 -12 -16 -71 -16 -44 0 -68 4 -64 10 10 15 -24 24
-48 12 -93 -43 -187 -57 -232 -34 -16 8 -32 18 -35 22 -3 4 -14 10 -25 12
l-20 5 20 7 c59 22 59 25 -7 25 -39 1 -68 -3 -68 -9 0 -5 6 -10 13 -10 6 -1
-28 -17 -76 -36 -82 -33 -157 -87 -157 -112 0 -6 -17 -16 -37 -23 -21 -6 -49
-20 -62 -30 -13 -11 -31 -19 -40 -19 -23 -1 -47 -21 -55 -47 -5 -17 2 -28 39
-58 48 -40 52 -48 33 -65 -95 -79 -252 -97 -273 -30 -3 11 -11 20 -16 20 -5 0
-9 6 -9 14 0 7 -9 16 -20 19 -11 3 -20 9 -19 14 4 14 -19 61 -34 70 -8 4 -16
17 -17 28 -5 47 1 60 33 73 17 7 43 19 57 27 14 8 37 20 53 26 18 7 27 18 27
33 0 12 5 27 12 34 7 7 9 12 6 12 -3 0 7 14 23 31 31 33 73 49 131 49 26 0 38
4 38 14 0 8 6 16 13 19 9 3 9 8 -2 21 -22 26 1 41 65 41 38 0 59 -5 67 -15 7
-8 19 -16 27 -17 8 -1 26 -4 39 -7 14 -3 49 -6 78 -7 44 -2 58 2 81 22 15 13
28 27 30 32 5 11 43 8 86 -7z m1426 -17 c19 -5 48 -9 63 -9 17 0 26 -4 22 -10
-4 -6 -10 -8 -15 -5 -4 3 -10 -2 -14 -10 -3 -8 -16 -15 -28 -15 -30 0 -52 -15
-44 -28 12 -19 -63 -3 -84 18 -11 11 -24 20 -30 20 -5 0 -10 9 -10 20 0 37 45
43 140 19z m3048 -55 c50 -14 4 -47 -50 -36 -35 7 -21 32 22 41 3 0 15 -2 28
-5z m-738 -14 c0 -5 -7 -7 -15 -4 -8 4 -15 8 -15 10 0 2 7 4 15 4 8 0 15 -4
15 -10z m458 -13 c42 10 95 -51 73 -85 -8 -11 -62 -22 -55 -11 3 5 1 9 -5 9
-5 0 -11 -6 -14 -12 -3 -10 -7 -10 -18 -2 -25 21 -104 32 -155 22 -78 -15
-105 -11 -132 18 -20 21 -22 28 -11 35 11 7 11 9 -2 9 -9 0 -19 7 -23 15 -3 9
0 15 10 15 8 0 13 -4 9 -9 -6 -10 111 -6 185 7 29 5 57 3 80 -4 19 -7 45 -10
58 -7z m-5106 -17 c4 -28 2 -33 -14 -36 -24 -3 -33 13 -18 31 14 17 29 19 32
5z m-824 -64 c7 -32 27 -45 63 -41 131 16 136 16 172 -18 21 -19 37 -44 39
-62 l4 -30 12 27 c11 26 13 27 69 21 43 -4 61 -11 73 -27 8 -11 14 -24 12 -28
-1 -5 3 -8 9 -8 8 0 8 -4 0 -14 -13 -16 -79 -30 -123 -28 -15 1 -29 -2 -33 -8
-8 -12 -125 -13 -125 -1 0 5 25 7 55 5 30 -1 57 1 60 7 4 5 1 9 -5 9 -7 0 -10
6 -8 12 3 7 -2 19 -9 26 -11 11 -26 12 -74 3 -72 -12 -99 -1 -99 41 0 33 -8
38 -73 45 -41 4 -56 2 -66 -11 -12 -14 -11 -16 5 -17 16 0 15 -2 -4 -9 -31
-13 -69 6 -81 41 -10 28 -9 31 16 33 7 1 12 6 12 11 -1 6 -5 9 -11 7 -5 -1 -7
2 -3 8 3 5 17 10 31 10 15 0 23 4 19 11 -5 7 5 9 26 7 24 -2 35 -9 37 -22z
m1852 -120 c0 3 7 -1 15 -10 8 -8 15 -28 15 -44 0 -35 15 -49 58 -58 18 -4 32
-13 32 -20 0 -22 33 -17 85 12 39 22 46 31 42 50 -2 13 0 21 4 18 5 -3 9 1 9
9 0 8 20 23 45 34 80 35 279 13 332 -37 12 -11 25 -37 29 -57 4 -21 11 -43 16
-50 5 -6 11 -34 13 -62 5 -76 32 -101 110 -101 33 0 78 -5 100 -10 22 -5 69
-10 105 -10 95 -2 170 -11 170 -21 0 -14 -42 -59 -51 -53 -4 2 -10 0 -14 -6
-3 -5 -14 -10 -24 -10 -18 0 -54 -34 -63 -61 -3 -8 -24 -21 -47 -29 -22 -7
-38 -17 -34 -23 3 -6 -2 -16 -11 -23 -27 -20 -2 -28 102 -32 86 -4 193 9 231
28 27 13 96 44 101 45 3 0 16 8 30 16 14 9 39 24 57 35 17 10 33 24 35 29 2 6
6 9 10 8 5 -2 8 3 8 11 0 9 20 19 54 27 52 11 58 10 128 -19 82 -34 106 -43
128 -48 40 -8 49 -11 63 -22 12 -10 16 -10 20 0 3 10 8 9 23 -3 10 -9 33 -20
51 -24 23 -4 30 -11 26 -22 -5 -12 -7 -12 -14 -1 -6 9 -9 7 -9 -9 0 -21 10
-28 33 -24 4 0 7 -6 7 -14 0 -19 16 -20 27 -1 4 7 37 27 73 44 60 28 151 46
225 43 12 0 27 11 37 30 10 17 22 28 27 24 5 -3 12 -1 16 5 8 13 85 13 85 0 0
-5 8 -10 18 -10 10 0 22 -4 28 -9 11 -11 76 -2 68 10 -3 5 2 6 10 3 9 -3 16
-2 16 2 0 5 20 9 45 10 25 0 45 -3 45 -9 0 -5 7 -7 14 -4 10 4 13 1 9 -9 -4
-10 2 -17 16 -21 22 -5 29 -37 11 -48 -5 -3 -10 -2 -10 4 0 5 -15 2 -32 -7
-38 -19 -131 -21 -152 -3 -16 14 -46 4 -46 -15 0 -8 -9 -14 -20 -14 -23 0 -23
0 -10 -34 7 -19 6 -26 -2 -26 -7 0 -3 -7 8 -15 14 -11 16 -15 4 -15 -12 0 -10
-4 4 -15 14 -11 16 -15 5 -15 -20 -1 52 -59 73 -60 9 0 21 -7 26 -16 5 -9 12
-15 15 -15 20 3 30 0 24 -6 -4 -3 2 -12 13 -20 23 -16 26 -53 9 -102 -9 -24
-9 -35 0 -44 17 -17 13 -42 -9 -62 -11 -10 -23 -33 -26 -52 -4 -21 -10 -30
-14 -23 -6 9 -12 9 -28 -1 -16 -10 -18 -17 -11 -31 11 -21 2 -23 -105 -33 -37
-3 -74 -11 -81 -18 -7 -7 -46 -39 -86 -72 -40 -33 -98 -86 -129 -117 -49 -50
-120 -99 -120 -82 0 4 -7 1 -15 -6 -9 -8 -68 -13 -172 -16 -141 -4 -163 -7
-208 -28 -42 -20 -182 -46 -245 -45 -8 1 -42 -2 -75 -5 -33 -3 -125 -6 -205
-7 -154 -1 -216 12 -295 61 -18 11 -41 20 -51 20 -11 0 -32 9 -49 20 -16 11
-38 20 -47 20 -10 0 -18 5 -18 10 0 6 -13 10 -29 10 -16 0 -32 6 -34 13 -3 7
-6 5 -6 -5 -1 -10 -7 -18 -13 -18 -7 0 -35 -11 -63 -24 -36 -18 -53 -22 -62
-14 -8 7 -13 7 -13 1 0 -6 -28 -11 -62 -12 -217 -4 -387 -21 -413 -41 -14 -10
-39 -12 -125 -11 -41 1 -79 6 -84 11 -6 6 -22 10 -37 10 -15 0 -39 4 -53 10
-18 6 -26 6 -26 -1 0 -6 -6 -7 -17 0 -11 5 -26 5 -42 0 -13 -6 -30 -8 -38 -5
-7 3 -62 8 -122 12 -87 5 -114 3 -137 -9 -25 -13 -27 -16 -11 -22 17 -7 17 -8
-2 -21 -11 -8 -26 -11 -35 -8 -9 3 -16 1 -16 -5 0 -6 -20 -9 -57 -6 -89 8
-101 9 -109 18 -4 4 -22 7 -40 7 -18 0 -37 6 -41 13 -12 19 -51 37 -66 31 -10
-3 -17 4 -21 20 -4 17 -13 26 -26 26 -11 0 -20 4 -20 8 0 5 -18 15 -40 22 -22
7 -40 16 -40 19 0 19 -169 64 -217 59 -18 -2 -33 0 -33 5 0 5 -8 7 -18 5 -26
-7 -218 9 -277 23 -27 7 -55 19 -61 27 -6 8 -16 12 -22 8 -7 -4 -12 -1 -12 9
0 11 -7 15 -22 13 -17 -2 -23 2 -23 16 0 28 -25 32 -26 4 -1 -15 -3 -18 -6 -6
-3 13 -12 15 -41 11 -20 -3 -39 -9 -42 -12 -3 -3 -44 -6 -92 -7 -75 0 -87 2
-91 17 -3 10 -19 22 -37 26 -30 8 -32 10 -16 25 18 18 22 48 6 48 -19 0 -10
26 18 53 16 15 31 24 35 20 4 -3 7 1 7 10 0 10 5 17 11 17 5 0 7 -4 4 -10 -4
-6 2 -7 17 -1 13 4 23 14 23 22 0 8 8 15 17 17 11 2 17 -2 15 -10 -2 -7 -2
-10 0 -5 3 4 15 7 28 7 24 0 95 27 95 36 0 3 -10 5 -22 4 -39 -3 -50 0 -46 12
9 25 118 16 119 -11 0 -12 2 -11 8 4 5 11 4 22 0 23 -22 9 -6 22 25 22 19 0
38 5 41 10 3 6 17 10 30 10 13 0 29 8 34 18 10 16 10 15 11 -3 1 -15 3 -16 7
-5 8 20 29 40 42 40 17 0 24 22 10 31 -7 4 -10 11 -6 15 3 4 14 1 24 -7 9 -8
14 -9 10 -3 -3 6 8 25 26 42 18 17 41 42 53 56 19 23 25 24 78 19 31 -3 52 -9
46 -13 -7 -5 -2 -9 14 -12 15 -3 29 -1 32 4 4 6 9 6 13 1 3 -4 37 -16 74 -26
65 -17 69 -17 100 0 18 10 36 23 42 28 5 6 35 20 65 30 57 20 81 21 355 13
117 -3 215 12 215 33 0 5 9 9 20 9 13 0 20 7 20 19 0 10 7 24 15 31 15 13 21
35 8 27 -5 -3 -6 16 -4 41 3 37 6 43 12 27 6 -13 6 -6 2 19 -4 28 -2 37 6 32
6 -4 18 -3 28 2 15 9 13 12 -13 28 -17 11 -29 25 -26 32 2 7 26 24 53 37 27
14 49 31 49 38 0 8 3 8 8 2 4 -6 18 -9 32 -8 14 2 36 4 50 4 37 2 70 28 70 56
0 13 -4 21 -10 18 -19 -12 -10 32 10 50 28 26 21 36 -36 54 -55 18 -66 41 -36
77 15 18 34 22 112 28 52 4 96 8 98 11 2 2 21 -3 43 -10 21 -8 39 -12 39 -9z
m1884 -12 l46 -7 0 -50 c0 -54 -16 -76 -57 -77 -12 0 -25 -5 -28 -10 -4 -6
-10 -8 -15 -5 -13 8 -67 -28 -63 -42 3 -7 -3 -9 -17 -6 -16 4 -20 1 -18 -18 2
-18 -4 -25 -27 -33 -16 -6 -32 -14 -35 -17 -20 -26 -123 -28 -176 -3 -17 7
-41 15 -54 17 -12 2 -25 8 -28 14 -4 6 -17 14 -30 17 -12 4 -33 18 -46 31 -17
17 -26 21 -35 12 -8 -8 -11 -6 -11 8 -1 18 -2 18 -10 3 -6 -9 -23 -19 -39 -23
-18 -4 -28 -11 -25 -18 2 -7 -1 -20 -8 -30 -18 -24 -96 -23 -183 2 -38 12 -80
21 -93 21 -12 0 -40 6 -61 12 -34 11 -41 18 -51 54 -11 40 -11 44 14 71 14 15
26 31 26 34 0 22 137 30 165 9 6 -4 33 -13 60 -20 28 -7 55 -16 60 -20 20 -15
118 -38 133 -33 9 4 13 2 9 -5 -11 -17 23 -19 78 -6 28 7 66 15 85 18 46 6
114 31 175 64 63 33 169 48 259 36z m2226 -80 c0 -2 -7 -4 -15 -4 -8 0 -15 4
-15 10 0 5 7 7 15 4 8 -4 15 -8 15 -10z m84 1 c20 -8 36 -17 36 -20 0 -3 -18
-5 -39 -5 -34 0 -40 3 -38 20 1 11 2 20 3 20 1 0 18 -7 38 -15z m121 -355 c4
-6 11 -8 16 -5 5 4 10 -4 11 -17 6 -94 -33 -135 -135 -141 -38 -2 -51 1 -58
15 -13 23 -8 77 8 90 7 6 13 16 13 22 0 14 56 40 70 31 5 -3 10 -1 10 4 0 14
57 14 65 1z m-952 -126 c-4 -10 0 -12 11 -8 9 3 16 9 16 13 0 11 222 11 258 0
26 -9 31 -15 27 -30 -5 -14 -2 -17 8 -13 13 4 14 -3 8 -47 -2 -13 -38 -47 -65
-61 l-30 -15 25 -7 c25 -8 40 -13 101 -40 20 -9 41 -16 47 -16 15 0 103 -43
119 -57 7 -7 19 -13 26 -13 15 0 57 -88 45 -96 -5 -3 -7 -10 -4 -15 4 -5 -5
-13 -20 -19 -14 -5 -28 -17 -31 -25 -4 -10 -13 -13 -24 -10 -14 5 -19 -1 -22
-30 -2 -19 -2 -35 2 -35 14 1 32 19 26 28 -3 6 -2 13 4 17 5 3 11 1 11 -4 1
-6 2 -15 3 -19 0 -5 9 -16 19 -26 13 -14 21 -15 31 -7 19 16 46 3 57 -26 13
-35 12 -39 -16 -51 -18 -8 -25 -8 -25 -1 0 6 -7 8 -16 5 -8 -3 -13 -2 -10 3
10 16 -22 20 -34 5 -15 -17 -37 -18 -42 -2 -3 8 -19 12 -42 10 -26 -3 -36 0
-32 7 4 6 0 11 -9 11 -9 0 -13 -4 -10 -10 8 -13 -15 -13 -35 0 -9 5 -19 5 -27
-2 -7 -5 -20 -8 -28 -4 -9 3 -13 2 -10 -4 7 -11 -39 -24 -59 -17 -9 4 -17 -1
-19 -11 -3 -12 -5 -9 -6 7 -1 16 -6 21 -15 18 -10 -4 -13 -1 -10 8 4 9 -7 18
-35 26 -37 11 -56 29 -31 29 6 0 10 8 8 18 -3 18 -63 42 -106 42 -12 0 -34 7
-47 16 -16 11 -36 14 -54 11 -19 -4 -31 -2 -35 6 -3 9 -7 8 -15 -3 -10 -13
-11 -13 -11 0 0 12 -11 14 -50 12 -33 -3 -50 0 -50 8 0 6 -5 8 -10 5 -14 -8
-52 4 -45 15 3 5 -5 16 -17 24 -19 14 -20 16 -5 16 10 0 16 4 13 9 -3 4 1 17
9 27 8 10 15 25 15 32 0 19 23 39 38 34 6 -2 12 1 12 6 0 6 32 20 70 31 39 12
68 26 65 30 -3 5 3 7 14 4 10 -3 22 0 25 6 11 18 -30 49 -74 56 -29 5 -44 13
-47 25 -3 11 -11 16 -19 13 -9 -3 -14 2 -14 16 0 23 15 29 23 9 3 -7 6 -3 6 9
1 16 6 20 24 17 12 -2 16 -2 10 2 -7 3 -13 10 -13 14 0 10 78 35 98 31 6 -1
12 2 12 8 0 5 9 7 19 4 12 -3 17 -11 14 -19z m-5210 -301 c-7 -2 -19 -2 -25 0
-7 3 -2 5 12 5 14 0 19 -2 13 -5z m-79 -18 c11 -8 16 -18 12 -22 -4 -4 -11 -1
-15 6 -6 9 -18 11 -37 7 -28 -7 -28 -7 -9 8 25 19 25 19 49 1z"/>
<path d="M13148 6153 c7 -3 16 -2 19 1 4 3 -2 6 -13 5 -11 0 -14 -3 -6 -6z"/>
<path d="M10810 6180 c0 -5 5 -10 11 -10 5 0 7 5 4 10 -3 6 -8 10 -11 10 -2 0
-4 -4 -4 -10z"/>
<path d="M8688 6033 c6 -2 18 -2 25 0 6 3 1 5 -13 5 -14 0 -19 -2 -12 -5z"/>
<path d="M10930 5849 c0 -5 5 -7 10 -4 6 3 10 8 10 11 0 2 -4 4 -10 4 -5 0
-10 -5 -10 -11z"/>
<path d="M10595 5824 c-16 -25 -16 -26 2 -22 10 2 18 12 19 26 2 28 0 28 -21
-4z"/>
<path d="M10651 5816 c-10 -12 -8 -13 9 -9 25 7 37 23 17 23 -8 0 -20 -6 -26
-14z"/>
<path d="M10718 5823 c7 -3 16 -2 19 1 4 3 -2 6 -13 5 -11 0 -14 -3 -6 -6z"/>
<path d="M8715 5871 c-25 -5 -27 -8 -12 -14 30 -12 67 -8 83 8 14 13 12 15
-13 14 -15 -1 -41 -4 -58 -8z"/>
<path d="M11080 5581 c0 -19 20 -22 42 -7 22 16 22 16 -10 16 -17 0 -32 -4
-32 -9z"/>
<path d="M5550 5516 c0 -2 7 -9 15 -16 13 -11 14 -10 9 4 -5 14 -24 23 -24 12z"/>
<path d="M8240 4150 c0 -5 5 -10 11 -10 5 0 7 5 4 10 -3 6 -8 10 -11 10 -2 0
-4 -4 -4 -10z"/>
<path d="M8442 4089 c2 -6 8 -10 13 -10 5 0 11 4 13 10 2 6 -4 11 -13 11 -9 0
-15 -5 -13 -11z"/>
<path d="M10031 3874 c-59 -21 -106 -53 -125 -86 -15 -25 -15 -29 5 -67 42
-81 209 -202 301 -217 20 -4 39 -12 42 -20 15 -39 159 -62 226 -36 34 13 60
44 43 49 -15 5 -18 43 -3 43 6 0 10 -9 10 -20 0 -11 7 -20 15 -20 18 0 20 -17
3 -22 -6 -2 -8 -9 -5 -15 6 -9 17 -8 43 3 29 12 41 13 69 3 37 -14 37 -29 0
-29 -13 0 -26 -4 -30 -9 -3 -6 8 -8 28 -4 19 3 44 0 56 -6 17 -10 25 -9 37 4
8 8 19 15 24 15 23 0 -6 38 -38 50 l-36 13 37 19 c36 18 45 39 29 64 -11 18
-88 38 -109 29 -10 -5 -22 -7 -26 -6 -4 0 -10 -6 -13 -14 -4 -8 -17 -15 -30
-15 -13 0 -24 -4 -24 -8 0 -5 -14 -8 -30 -7 -19 1 -34 -4 -40 -14 -5 -9 -10
-11 -10 -4 0 6 -13 15 -28 21 -25 9 -28 14 -24 46 3 26 0 37 -11 42 -9 3 -14
11 -11 18 2 6 -12 27 -32 46 -20 19 -51 49 -68 67 -30 30 -122 83 -145 83 -6
0 -11 4 -11 8 0 15 -73 12 -119 -4z m693 -390 c17 -7 22 -34 6 -34 -5 0 -10 6
-10 14 0 8 -12 17 -27 19 -21 3 -23 4 -6 6 12 0 28 -2 37 -5z"/>
<path d="M10631 3706 c-7 -9 -22 -16 -32 -16 -12 0 -19 -7 -19 -20 0 -12 5
-17 14 -14 8 3 16 -4 21 -18 l8 -23 4 22 c3 14 9 20 19 16 15 -5 16 6 5 46 -6
21 -8 22 -20 7z"/>
<path d="M12560 3620 c0 -5 7 -10 16 -10 8 0 12 5 9 10 -3 6 -10 10 -16 10 -5
0 -9 -4 -9 -10z"/>
<path d="M11958 3493 c7 -3 16 -2 19 1 4 3 -2 6 -13 5 -11 0 -14 -3 -6 -6z"/>
<path d="M8151 3174 c0 -11 3 -14 6 -6 3 7 2 16 -1 19 -3 4 -6 -2 -5 -13z"/>
<path d="M8120 3169 c0 -5 5 -7 10 -4 6 3 10 8 10 11 0 2 -4 4 -10 4 -5 0 -10
-5 -10 -11z"/>
<path d="M10669 3093 c11 -20 58 -25 65 -7 3 7 -8 14 -26 18 -46 9 -50 8 -39
-11z"/>
<path d="M13291 3524 c0 -11 3 -14 6 -6 3 7 2 16 -1 19 -3 4 -6 -2 -5 -13z"/>
<path d="M13320 3530 c0 -5 5 -10 10 -10 6 0 10 5 10 10 0 6 -4 10 -10 10 -5
0 -10 -4 -10 -10z"/>
<path d="M13245 3510 c-3 -5 3 -10 15 -10 12 0 18 5 15 10 -3 6 -10 10 -15 10
-5 0 -12 -4 -15 -10z"/>
<path d="M13731 3034 c0 -11 3 -14 6 -6 3 7 2 16 -1 19 -3 4 -6 -2 -5 -13z"/>
<path d="M13870 2985 c0 -8 5 -15 10 -15 6 0 10 7 10 15 0 8 -4 15 -10 15 -5
0 -10 -7 -10 -15z"/>
<path d="M6522 12353 c2 -17 9 -28 18 -29 24 0 60 18 60 32 0 7 8 15 18 17 9
3 -9 5 -41 6 -58 1 -58 1 -55 -26z"/>
<path d="M7215 12370 c3 -5 22 -10 41 -10 19 0 34 5 34 10 0 6 -18 10 -41 10
-24 0 -38 -4 -34 -10z"/>
<path d="M11227 12088 c8 -697 7 -683 36 -727 42 -63 88 -111 106 -111 24 0
26 30 25 285 -1 121 -2 361 -3 533 l-1 312 -83 0 -84 0 4 -292z"/>
<path d="M6428 12213 c7 -3 16 -2 19 1 4 3 -2 6 -13 5 -11 0 -14 -3 -6 -6z"/>
<path d="M6420 12180 c0 -5 4 -10 9 -10 6 0 13 5 16 10 3 6 -1 10 -9 10 -9 0
-16 -4 -16 -10z"/>
<path d="M6321 12084 c0 -11 3 -14 6 -6 3 7 2 16 -1 19 -3 4 -6 -2 -5 -13z"/>
<path d="M6390 12058 c0 -23 3 -29 9 -19 8 12 4 51 -5 51 -2 0 -4 -15 -4 -32z"/>
<path d="M15330 11930 c0 -5 7 -10 16 -10 8 0 12 5 9 10 -3 6 -10 10 -16 10
-5 0 -9 -4 -9 -10z"/>
<path d="M6835 11890 c3 -5 8 -10 11 -10 2 0 4 5 4 10 0 6 -5 10 -11 10 -5 0
-7 -4 -4 -10z"/>
<path d="M6905 11870 c3 -5 8 -10 11 -10 2 0 4 5 4 10 0 6 -5 10 -11 10 -5 0
-7 -4 -4 -10z"/>
<path d="M6721 11844 c0 -11 3 -14 6 -6 3 7 2 16 -1 19 -3 4 -6 -2 -5 -13z"/>
<path d="M6720 11811 c0 -5 7 -11 14 -14 10 -4 13 -1 9 9 -6 15 -23 19 -23 5z"/>
<path d="M15312 11746 c-21 -11 -22 -14 -7 -26 13 -11 19 -10 35 8 11 12 20
24 20 27 0 9 -24 5 -48 -9z"/>
<path d="M15550 11740 c-12 -8 -12 -10 5 -10 11 0 27 5 35 10 12 8 12 10 -5
10 -11 0 -27 -5 -35 -10z"/>
<path d="M6838 11663 c7 -3 16 -2 19 1 4 3 -2 6 -13 5 -11 0 -14 -3 -6 -6z"/>
<path d="M6683 11550 c0 -17 1 -29 1 -27 1 1 7 9 14 18 10 13 10 19 -1 28 -11
8 -14 5 -14 -19z"/>
<path d="M6750 11510 c0 -5 5 -10 11 -10 5 0 7 5 4 10 -3 6 -8 10 -11 10 -2 0
-4 -4 -4 -10z"/>
<path d="M15680 11489 c0 -5 5 -7 10 -4 6 3 10 8 10 11 0 2 -4 4 -10 4 -5 0
-10 -5 -10 -11z"/>
<path d="M6831 11426 c-9 -10 -9 -16 -1 -21 16 -10 31 7 21 23 -6 10 -10 10
-20 -2z"/>
<path d="M15467 11410 c-16 -17 -25 -34 -22 -40 9 -15 36 -12 57 7 14 13 18
13 18 2 1 -10 5 -9 15 4 13 18 14 18 25 -3 11 -21 12 -21 25 -3 23 29 18 43
-15 43 -16 0 -30 5 -30 10 0 21 -46 8 -73 -20z"/>
<path d="M15400 11376 c0 -8 7 -16 15 -20 17 -6 18 -4 9 18 -8 20 -24 21 -24
2z"/>
<path d="M15490 11305 c0 -8 7 -15 15 -15 8 0 15 4 15 9 0 5 -7 11 -15 15 -9
3 -15 0 -15 -9z"/>
<path d="M15630 11198 c0 -9 5 -20 11 -23 17 -11 18 -2 3 19 -12 17 -14 17
-14 4z"/>
<path d="M7418 11103 c7 -3 16 -2 19 1 4 3 -2 6 -13 5 -11 0 -14 -3 -6 -6z"/>
<path d="M8328 10823 c6 -2 18 -2 25 0 6 3 1 5 -13 5 -14 0 -19 -2 -12 -5z"/>
<path d="M8303 10797 c-18 -10 -20 -15 -9 -29 16 -22 26 -23 26 -2 0 14 3 14
15 4 23 -19 30 -4 9 19 -16 16 -23 17 -41 8z"/>
<path d="M8105 10759 c-4 -11 -4 -23 -1 -26 8 -9 36 17 36 33 0 22 -28 16 -35
-7z"/>
<path d="M10300 10399 c0 -5 5 -7 10 -4 6 3 10 1 10 -4 0 -6 5 -11 11 -11 8 0
8 5 -1 15 -14 17 -30 20 -30 4z"/>
<path d="M10935 10350 c3 -5 13 -10 21 -10 8 0 12 5 9 10 -3 6 -13 10 -21 10
-8 0 -12 -4 -9 -10z"/>
<path d="M15365 10320 c3 -5 12 -7 20 -3 21 7 19 13 -6 13 -11 0 -18 -4 -14
-10z"/>
<path d="M10720 10255 c0 -16 17 -19 44 -9 22 9 10 24 -20 24 -15 0 -24 -6
-24 -15z"/>
<path d="M11087 10233 c-4 -4 -21 -7 -37 -8 -16 -1 -38 -9 -48 -18 -21 -19
-39 -22 -44 -7 -2 7 -17 5 -41 -5 -21 -9 -37 -11 -37 -5 0 14 -42 12 -62 -4
-25 -18 -22 -26 7 -26 14 0 25 -4 25 -9 0 -5 13 -12 29 -16 16 -3 39 -17 51
-31 13 -13 27 -24 32 -24 4 0 30 -16 57 -35 26 -19 53 -35 58 -35 6 0 16 -7
23 -15 18 -22 26 -11 33 45 7 59 -2 152 -14 144 -5 -3 -9 3 -9 13 0 23 -14 45
-23 36z"/>
<path d="M10330 10180 c0 -36 3 -40 25 -40 14 0 25 -4 25 -10 0 -5 6 -10 13
-10 18 -1 52 -51 39 -59 -5 -3 -11 -15 -13 -26 -3 -11 -11 -20 -18 -20 -8 0
-17 -8 -20 -18 -6 -17 -8 -17 -33 2 -19 15 -28 18 -31 9 -3 -7 -6 -4 -6 8 -1
11 4 25 11 32 9 9 9 12 -1 12 -10 0 -11 15 -6 69 6 57 4 69 -9 74 -18 7 -19 2
-17 -68 1 -27 -2 -88 -8 -135 -6 -47 -13 -195 -17 -330 -3 -135 -12 -303 -18
-375 -14 -156 -8 -277 15 -300 14 -15 27 -14 142 9 70 14 128 26 131 26 3 0
12 7 20 16 12 11 16 35 16 89 0 84 21 201 45 260 10 22 33 57 52 79 31 34 35
43 31 80 -3 23 -17 60 -31 82 -35 53 -68 186 -70 275 -2 121 6 199 19 199 24
0 44 -12 44 -28 0 -25 49 -82 71 -82 23 0 39 35 39 87 0 27 5 36 20 40 19 5
19 7 4 17 -14 11 -15 15 -3 34 8 12 19 22 26 22 7 0 13 5 13 10 0 13 -27 13
-32 0 -2 -7 -13 -7 -35 0 -27 10 -40 8 -80 -10 -39 -17 -57 -20 -98 -13 -27 4
-57 8 -65 9 -8 0 -17 2 -20 3 -3 2 -14 4 -25 7 -11 2 -35 6 -54 10 -23 5 -36
2 -42 -7 -6 -11 -11 -11 -21 -1 -21 21 -28 14 -28 -28z"/>
<path d="M12620 10020 c0 -5 5 -10 10 -10 6 0 10 5 10 10 0 6 -4 10 -10 10 -5
0 -10 -4 -10 -10z"/>
<path d="M12540 9977 c-16 -8 -30 -28 -40 -59 -17 -54 -30 -71 -30 -40 0 13
-6 22 -15 22 -8 0 -12 -6 -10 -13 3 -6 -5 -17 -17 -22 -22 -10 -22 -12 -21
-210 2 -229 13 -302 66 -415 54 -116 67 -165 78 -290 5 -63 14 -159 19 -213 6
-54 10 -152 10 -218 0 -110 3 -127 30 -195 31 -79 81 -162 137 -231 48 -60 82
-141 146 -348 66 -211 77 -268 77 -385 0 -113 18 -164 96 -266 34 -45 74 -104
88 -131 35 -69 47 -78 85 -59 16 9 32 20 35 25 9 14 -28 244 -63 391 -11 47
-29 130 -40 185 -11 55 -30 134 -41 175 -11 41 -25 120 -31 175 -5 55 -12 117
-15 138 -7 50 12 361 31 497 7 58 21 161 30 230 39 311 43 320 138 320 51 0
58 3 78 31 20 29 21 37 14 142 -11 180 -24 224 -61 210 -6 -2 -15 1 -19 6 -3
6 -11 8 -17 5 -8 -5 -9 8 -6 39 3 27 1 48 -5 50 -6 2 -5 12 3 27 9 18 10 25 1
28 -6 2 -11 8 -11 14 0 19 -44 47 -57 36 -24 -20 -93 14 -93 45 0 7 4 6 10 -3
8 -12 10 -11 10 6 0 12 -7 25 -16 28 -13 5 -14 9 -4 21 7 8 8 15 3 15 -19 0
-55 43 -50 60 6 23 -36 30 -136 24 -39 -2 -66 -1 -59 2 28 13 11 26 -25 20
-21 -4 -53 -9 -72 -12 -19 -2 -38 -7 -43 -10 -5 -3 -25 11 -45 32 -29 32 -33
39 -19 44 14 5 10 13 -22 48 -41 44 -61 50 -102 29z m-22 -188 c-2 -6 -8 -10
-13 -10 -5 0 -11 4 -13 10 -2 6 4 11 13 11 9 0 15 -5 13 -11z"/>
<path d="M12730 9870 c0 -5 5 -10 10 -10 6 0 10 5 10 10 0 6 -4 10 -10 10 -5
0 -10 -4 -10 -10z"/>
<path d="M13130 9730 c0 -5 5 -10 10 -10 6 0 10 5 10 10 0 6 -4 10 -10 10 -5
0 -10 -4 -10 -10z"/>
<path d="M14281 9576 c-17 -34 -31 -68 -31 -75 0 -6 -10 -33 -22 -59 -12 -26
-24 -74 -26 -107 -4 -57 -1 -65 56 -175 55 -105 113 -251 141 -355 6 -22 20
-107 31 -190 19 -148 16 -263 -8 -287 -4 -4 -33 -16 -63 -26 -50 -16 -55 -20
-68 -62 -8 -25 -28 -79 -43 -120 -23 -58 -29 -92 -30 -155 -2 -105 19 -171 95
-309 108 -194 102 -171 103 -351 1 -133 6 -178 27 -265 26 -109 29 -109 41
-10 7 59 31 106 65 126 28 17 47 49 55 96 10 60 38 199 62 304 42 192 29 274
-45 294 -69 18 -90 80 -71 210 7 41 15 116 20 165 20 219 38 304 104 482 8 23
17 78 20 122 4 78 3 82 -23 102 -14 11 -41 27 -59 34 -19 9 -36 25 -43 42 -21
55 -39 189 -38 278 1 50 -3 101 -9 115 -15 33 -43 64 -64 73 -10 3 -18 11 -18
17 0 5 -6 10 -13 10 -27 0 -76 60 -79 97 -5 59 -31 51 -67 -21z"/>
<path d="M8684 9484 c4 -9 0 -24 -7 -33 -7 -9 -26 -56 -40 -105 -21 -67 -24
-92 -16 -102 15 -19 48 -18 55 1 4 8 12 15 20 15 8 0 14 7 14 15 0 8 4 23 9
33 18 36 30 68 36 98 8 39 -9 86 -29 78 -8 -3 -17 -1 -21 5 -10 17 -28 13 -21
-5z"/>
<path d="M8774 8627 c-31 -36 -130 -477 -122 -545 3 -26 4 -27 63 -24 63 3 86
16 111 64 11 22 12 46 4 130 -6 57 -13 113 -15 125 -6 35 -19 236 -17 251 4
15 -10 15 -24 -1z"/>
<path d="M10272 8220 c-5 -14 -13 -61 -16 -105 -16 -171 -38 -306 -75 -445
-49 -184 -58 -226 -71 -330 -6 -47 -15 -114 -20 -150 -5 -36 -12 -99 -14 -140
-3 -41 -8 -91 -11 -110 -7 -58 13 -73 103 -81 42 -3 82 -4 88 -2 25 9 32 49
23 143 -5 52 -6 111 -3 130 10 55 132 415 175 517 67 158 61 220 -30 336 -32
41 -62 94 -79 140 -15 40 -34 84 -44 98 l-16 24 -10 -25z"/>
<path d="M9677 8131 c-12 -20 -16 -44 -13 -76 4 -51 16 -74 16 -31 0 15 9 39
20 53 17 22 18 27 5 39 -8 8 -12 21 -9 29 10 25 -1 17 -19 -14z m0 -63 c-3 -8
-6 -5 -6 6 -1 11 2 17 5 13 3 -3 4 -12 1 -19z"/>
<path d="M9670 7965 c0 -7 -5 -15 -12 -17 -20 -7 -26 -231 -9 -363 6 -49 18
-147 26 -217 11 -97 22 -147 49 -216 29 -73 35 -104 37 -171 2 -76 4 -83 24
-91 13 -5 32 -6 44 -3 17 4 21 13 21 49 0 23 -7 76 -15 116 -9 40 -27 154 -41
253 -30 215 -29 209 -44 265 -12 43 -15 74 -21 200 -1 30 -4 59 -7 64 -3 5 -5
31 -5 58 -1 40 -4 48 -19 48 -11 0 -16 5 -13 10 4 6 11 8 16 5 5 -4 9 -2 9 3
0 5 -9 12 -20 15 -13 3 -20 0 -20 -8z"/>
<path d="M8896 7772 c-40 -103 -60 -140 -113 -204 -29 -38 -58 -68 -64 -68 -5
0 -28 -13 -51 -30 -22 -16 -49 -30 -58 -30 -10 0 -21 -7 -24 -16 -18 -47 6
-101 80 -181 54 -57 74 -82 74 -91 0 -4 21 -31 46 -60 32 -36 53 -52 70 -52
28 0 43 -29 51 -100 7 -69 25 -90 76 -90 46 1 174 23 183 33 3 3 -4 43 -16 89
-37 140 -68 271 -74 320 -4 25 -18 61 -31 80 -50 67 -70 141 -106 376 -6 39
-14 72 -17 72 -4 0 -15 -21 -26 -48z"/>
<path d="M11686 7709 c-16 -74 -26 -232 -26 -416 0 -114 -4 -240 -8 -280 -9
-81 -4 -104 24 -113 26 -10 104 20 104 40 0 8 -7 47 -16 86 -18 74 -13 142 9
141 33 -1 43 5 45 28 1 13 3 28 4 32 1 4 -12 51 -29 104 -17 53 -41 159 -53
235 -22 139 -43 193 -54 143z"/>
<path d="M12467 7564 c-4 -4 -7 -15 -7 -25 0 -9 -5 -19 -12 -21 -21 -7 -1
-198 21 -198 3 0 7 -34 8 -75 2 -74 2 -75 -23 -75 -26 0 -44 -28 -51 -85 -10
-70 -66 -125 -129 -125 -66 0 -103 55 -154 228 -19 67 -22 72 -41 62 -10 -6
-24 -8 -29 -5 -6 3 -10 -3 -10 -14 0 -12 -5 -21 -10 -21 -6 0 -15 -12 -22 -27
-33 -83 -41 -94 -78 -113 -22 -11 -51 -20 -65 -20 -17 0 -25 -5 -25 -17 0 -9
-3 -13 -6 -10 -12 12 -46 -43 -38 -61 4 -9 6 -20 6 -25 -6 -28 136 -38 479
-37 151 1 317 1 370 0 78 -1 99 1 113 15 18 19 14 28 -34 75 -14 14 -33 41
-42 60 -10 19 -28 45 -42 57 -29 28 -40 73 -18 73 13 0 12 3 -3 14 -15 11 -17
17 -7 28 6 8 9 18 5 22 -9 9 -13 40 -14 100 0 38 -7 60 -30 93 -16 24 -29 47
-29 51 -1 12 -48 62 -59 62 -5 0 -11 5 -13 11 -2 5 -7 7 -11 3z"/>
<path d="M14960 7533 c-47 -18 -73 -51 -130 -169 -49 -100 -73 -137 -119 -183
-71 -71 -101 -130 -101 -199 0 -64 6 -67 146 -77 94 -7 101 -6 134 17 33 23
35 27 41 98 7 82 15 118 60 258 21 67 29 112 29 165 0 88 -13 107 -60 90z"/>
<path d="M10748 7480 c-29 -17 -57 -73 -92 -186 -33 -104 -43 -169 -46 -314
-2 -78 -3 -76 31 -90 36 -15 156 -17 170 -3 6 6 2 26 -10 54 -33 71 -22 142
29 197 27 29 42 28 66 -5 29 -40 35 -60 41 -143 3 -41 10 -78 17 -82 6 -4 36
-10 66 -13 30 -3 93 -10 140 -16 67 -8 93 -7 124 4 55 19 62 34 47 99 -6 29
-13 96 -14 149 -3 125 -17 148 -87 144 -68 -4 -87 -12 -102 -45 -7 -17 -16
-30 -19 -30 -4 0 -12 -20 -19 -45 -10 -37 -17 -45 -36 -45 -26 0 -47 30 -38
53 3 8 1 18 -5 22 -6 3 -11 15 -11 26 0 11 -8 22 -17 25 -75 24 -116 57 -145
115 -15 30 -28 60 -28 67 0 18 -29 72 -38 72 -4 0 -15 -5 -24 -10z"/>
<path d="M13815 7299 c-22 -5 -66 -10 -97 -12 -32 -1 -62 -7 -67 -12 -12 -12
-14 -85 -5 -194 6 -66 4 -82 -6 -76 -9 6 -11 0 -5 -24 4 -20 3 -31 -5 -31 -6
0 -8 -5 -4 -11 11 -18 105 -5 120 16 20 27 93 26 121 -2 30 -30 63 -34 248
-31 199 4 192 -7 113 166 -17 35 -33 50 -92 84 -43 24 -82 56 -94 75 -12 18
-28 33 -36 33 -7 0 -19 6 -25 13 -13 16 -107 19 -166 6z"/>
<path d="M9438 7190 c-17 -10 -34 -106 -30 -165 4 -48 -10 -61 -52 -48 -41 13
-42 12 -51 -39 -7 -37 -7 -37 36 -48 40 -11 150 -7 171 6 4 3 0 16 -8 30 -14
20 -15 33 -6 77 11 55 4 113 -19 165 -15 35 -17 36 -41 22z"/>
<path d="M11108 6792 c-18 -9 -38 -22 -45 -28 -25 -24 -80 -25 -140 -2 -47 18
-75 22 -150 20 -51 -1 -103 -6 -116 -11 -30 -12 -97 -71 -97 -87 0 -14 67 -37
81 -28 4 2 11 -1 14 -7 4 -5 14 -8 23 -4 13 5 428 15 629 15 59 0 75 3 80 16
7 19 -3 26 -97 68 -36 16 -67 32 -70 35 -3 4 -21 12 -42 18 -29 8 -43 7 -70
-5z"/>
<path d="M11692 6798 c-7 -7 -12 -39 -12 -75 0 -60 1 -63 27 -69 16 -4 52 -1
83 7 39 10 69 12 103 5 29 -5 106 -4 191 1 87 6 169 6 210 1 127 -17 199 4
123 35 -18 8 -49 31 -68 50 -33 34 -89 65 -89 49 0 -19 -58 -29 -93 -17 -20 7
-39 10 -42 7 -3 -3 -38 -6 -78 -7 -59 -2 -83 -8 -135 -34 -65 -33 -82 -32
-112 4 -11 14 -81 55 -93 55 -1 0 -8 -5 -15 -12z"/>
</g>
</svg>
